<svg version="1.1" id="Layer_1" xmlns="http://www.w3.org/2000/svg" xmlns:xlink="http://www.w3.org/1999/xlink" x="0px" y="0px"
	 width="100%" viewBox="0 0 2000 1247" enable-background="new 0 0 2000 1247" xml:space="preserve">
<path fill="#4C6971" opacity="1.000000" stroke="none" 
	d="
M1416.000000,1248.000000 
	C944.387085,1248.000000 472.774231,1248.000000 1.080672,1248.000000 
	C1.080672,832.434509 1.080672,416.869019 1.080672,1.000000 
	C304.030853,1.000000 607.061829,1.000000 910.209839,1.247117 
	C910.005798,1.589672 909.689758,1.745211 909.363098,1.771998 
	C884.066040,3.846241 858.709717,5.376385 833.488281,8.138731 
	C812.055664,10.486108 790.667908,13.646848 769.455811,17.519051 
	C725.095398,25.616884 681.402832,36.544941 639.066467,52.231388 
	C617.584290,60.190937 596.049377,68.286133 575.390381,78.111534 
	C554.572144,88.012680 534.583008,99.746307 514.656921,111.405602 
	C499.049744,120.537804 483.683472,130.206924 468.962738,140.693909 
	C454.106842,151.277115 439.516998,162.432190 426.015076,174.666000 
	C410.066406,189.116684 394.254395,204.026627 380.481049,220.492340 
	C362.836700,241.585754 348.997620,265.389374 341.139832,292.115021 
	C338.726593,300.322906 336.248901,308.466217 337.737732,317.475800 
	C339.045135,325.387268 338.985779,333.579376 338.949524,341.644928 
	C338.898224,353.050140 337.622803,364.482513 338.109894,375.850189 
	C338.937775,395.169312 346.881470,412.392639 357.624359,427.893036 
	C369.188812,444.578827 383.663910,458.890442 399.903656,471.210480 
	C417.269867,484.385071 436.117340,494.779053 457.267090,500.594971 
	C458.676849,500.982635 460.848999,501.306213 461.708923,500.558441 
	C468.925171,494.283173 475.917511,487.750366 483.362488,480.942871 
	C482.089935,480.040253 480.998840,479.055267 479.735931,478.403076 
	C466.504700,471.570007 453.343231,464.591553 439.971954,458.042267 
	C419.975403,448.247955 401.440460,436.907349 390.724976,416.197601 
	C385.283112,405.680145 379.771210,395.320312 379.952515,382.919159 
	C380.350983,355.662506 388.752014,330.549042 400.863556,306.643250 
	C415.478210,277.796814 436.520111,253.946091 460.699677,232.687042 
	C483.216553,212.889786 507.730225,195.955704 533.449585,180.641769 
	C565.130005,161.778412 598.701233,147.013458 633.400269,134.850922 
	C667.903687,122.756958 702.981445,112.484673 738.761658,104.817215 
	C767.002258,98.765442 795.111511,91.701294 823.631042,87.446198 
	C863.476196,81.501350 903.587830,77.107872 943.704285,73.303734 
	C968.155334,70.985107 992.825928,70.324051 1017.404968,70.186478 
	C1044.837402,70.032928 1072.290771,70.997032 1099.710571,72.086662 
	C1117.611328,72.798019 1135.563110,73.851646 1153.322998,76.091469 
	C1178.316284,79.243530 1203.355347,82.652519 1228.010864,87.721390 
	C1269.234497,96.196426 1308.773193,109.472580 1343.509277,134.372742 
	C1355.339355,142.852982 1366.072144,152.464157 1374.957886,163.996094 
	C1389.018799,182.244110 1397.964600,202.598709 1401.310913,225.601776 
	C1404.424683,247.005753 1403.595337,267.937164 1397.242676,288.610291 
	C1388.684326,316.461517 1372.167358,339.414703 1352.265991,360.045502 
	C1341.798096,370.897095 1330.782104,381.322235 1319.220093,390.990967 
	C1303.586060,404.064941 1287.193115,416.231537 1271.116455,428.775604 
	C1267.991333,431.214050 1264.823853,433.598236 1260.754517,436.712799 
	C1282.257324,439.343994 1297.614990,449.069092 1307.014404,467.871704 
	C1308.702393,466.846130 1310.006226,466.191345 1311.156494,465.331299 
	C1316.312256,461.476746 1321.514160,457.675629 1326.531616,453.646332 
	C1334.676636,447.105591 1343.074829,440.810303 1350.670288,433.671143 
	C1362.275024,422.763580 1373.459229,411.391052 1384.507568,399.913239 
	C1398.057251,385.836975 1409.133423,369.811951 1418.126953,352.574341 
	C1436.986328,316.427460 1445.568237,277.991699 1442.088257,237.076553 
	C1439.317993,204.503586 1426.780273,175.725037 1408.547363,149.117661 
	C1399.260986,135.566055 1389.296997,122.551994 1377.028809,111.462044 
	C1370.674072,105.717506 1365.039795,99.025574 1358.144531,94.061119 
	C1344.843506,84.484695 1331.287109,75.120255 1317.093872,66.959366 
	C1295.456177,54.518078 1272.718994,44.049591 1248.567017,37.531414 
	C1224.860718,31.133545 1200.884766,25.635220 1176.854736,20.557833 
	C1134.413452,11.590218 1091.502319,5.749356 1048.193970,2.927639 
	C1041.449341,2.488199 1034.730713,1.652471 1028.000000,1.000000 
	C1352.285278,1.000000 1676.570679,1.000000 2000.927979,1.000000 
	C2000.927979,416.557129 2000.927979,832.114258 2000.927979,1248.000000 
	C1827.302490,1248.000000 1653.604858,1248.000000 1479.770996,1247.754761 
	C1481.612915,1247.286743 1483.606079,1247.154663 1485.566895,1246.827759 
	C1523.364258,1240.523071 1559.549683,1229.606934 1592.401245,1209.254395 
	C1613.869141,1195.954224 1631.948242,1179.225464 1642.783691,1156.048584 
	C1647.896973,1145.111572 1651.683838,1133.501953 1655.418579,1121.985352 
	C1661.219604,1104.096924 1664.910400,1085.737671 1664.939575,1066.840088 
	C1664.953003,1058.205078 1664.998413,1049.473999 1663.811157,1040.956421 
	C1662.169678,1029.182251 1660.019165,1017.392090 1656.867065,1005.944641 
	C1654.537354,997.483704 1648.684814,991.285583 1639.411987,989.329834 
	C1632.472412,987.866028 1626.451172,990.991394 1625.786133,997.978027 
	C1625.253662,1003.571838 1626.595215,1009.420227 1627.591553,1015.069824 
	C1631.222534,1035.657349 1631.430420,1056.045898 1624.459961,1076.047607 
	C1616.142090,1099.915527 1600.881348,1118.800659 1581.042236,1133.861816 
	C1558.703735,1150.820557 1533.218262,1160.500244 1505.251343,1163.035889 
	C1484.316284,1164.934082 1463.478516,1168.857666 1442.314941,1166.976440 
	C1427.791992,1165.685669 1413.180420,1164.849487 1398.803223,1162.577026 
	C1370.588135,1158.117432 1342.830322,1151.193359 1316.103638,1141.209717 
	C1288.315674,1130.829590 1260.737061,1119.652710 1233.881592,1107.083618 
	C1210.017456,1095.914551 1186.863159,1083.048218 1164.163574,1069.631592 
	C1147.645264,1059.868530 1132.147095,1048.303833 1116.634888,1036.940796 
	C1106.475952,1029.499268 1097.089722,1021.000488 1087.382568,1012.945007 
	C1073.620605,1001.524475 1059.763184,990.214722 1046.171875,978.594055 
	C1035.959473,969.862488 1025.936523,960.892578 1016.131470,951.706116 
	C1005.809937,942.035889 995.477844,932.328674 985.815063,922.014893 
	C971.291260,906.512512 957.343933,890.470093 943.156372,874.652893 
	C936.942017,867.724854 930.617310,860.891052 924.557068,853.830505 
	C911.602539,838.737793 898.679871,823.615051 885.944641,808.337463 
	C872.144104,791.781982 858.599121,775.013672 844.874023,758.394836 
	C842.415100,755.417480 839.622620,752.715759 836.218567,749.065796 
	C835.257690,752.871582 834.510071,755.515015 833.927490,758.194336 
	C830.959106,771.844727 825.302002,784.111755 814.647766,793.439514 
	C811.838440,795.899048 811.431946,797.344360 813.543945,800.307800 
	C822.501648,812.876892 831.027222,825.759766 840.174072,838.186890 
	C854.738403,857.974243 869.380676,877.718140 884.536499,897.052002 
	C898.055847,914.298096 912.062805,931.180237 926.317627,947.826477 
	C941.381042,965.416992 956.919617,982.603699 972.387634,999.843750 
	C983.669556,1012.418091 994.850342,1025.109497 1006.661926,1037.175171 
	C1020.852905,1051.671387 1035.411255,1065.833374 1050.291016,1079.621460 
	C1061.706299,1090.199341 1073.402100,1100.587280 1085.802734,1109.962280 
	C1104.931519,1124.423950 1124.427856,1138.460083 1144.381714,1151.756226 
	C1180.340820,1175.717407 1218.807129,1195.062988 1259.185303,1210.370483 
	C1279.206299,1217.960327 1299.600464,1224.722656 1320.170166,1230.667725 
	C1344.430054,1237.679565 1369.231201,1242.506226 1394.404663,1245.172485 
	C1401.621948,1245.936890 1408.802612,1247.047974 1416.000000,1248.000000 
M1529.275757,672.329529 
	C1529.155273,672.197510 1529.034668,672.065552 1528.990967,671.176758 
	C1534.321655,657.150024 1539.610352,643.107117 1544.997681,629.102173 
	C1548.720093,619.425354 1552.749634,609.861267 1556.200562,600.091003 
	C1556.747437,598.542786 1555.563965,595.332642 1554.153320,594.316162 
	C1545.532227,588.104187 1534.081299,592.191223 1530.838379,602.373779 
	C1528.534058,609.609436 1526.320435,616.874023 1524.072144,624.127441 
	C1519.890381,637.617554 1514.321533,650.281555 1504.623657,660.955872 
	C1484.077637,683.570557 1459.372314,699.589355 1430.120361,708.295654 
	C1421.809326,710.769165 1413.133911,712.257446 1404.416626,708.992676 
	C1397.850464,706.533508 1393.256836,700.133972 1392.948486,693.078979 
	C1392.549805,683.962708 1395.619263,675.708496 1399.647705,667.990967 
	C1412.979126,642.451904 1432.844482,622.859192 1457.043335,607.642822 
	C1462.677734,604.099854 1469.114990,601.606934 1475.471191,599.500610 
	C1482.241455,597.257202 1486.357422,600.665283 1484.725220,607.554749 
	C1483.524292,612.623230 1480.972046,618.061523 1477.379639,621.723938 
	C1470.715576,628.517822 1463.301514,634.810364 1455.383179,640.086121 
	C1442.634155,648.580505 1429.572754,656.796997 1414.029785,659.632690 
	C1412.703369,659.874695 1411.652222,661.626221 1410.473145,662.676453 
	C1411.899536,663.777527 1413.255005,665.680176 1414.767090,665.814209 
	C1418.007202,666.101318 1421.380371,665.760986 1424.607910,665.175598 
	C1443.470093,661.754578 1460.238159,653.351318 1475.721436,642.466980 
	C1485.840210,635.353577 1495.019043,626.612122 1497.363159,613.918274 
	C1499.826172,600.581421 1496.927124,591.526917 1486.902710,587.189514 
	C1479.264404,583.884583 1471.087036,584.409241 1463.114502,586.860229 
	C1446.083984,592.095825 1431.521973,601.793335 1417.354126,612.191956 
	C1406.379028,620.247314 1396.247437,629.177551 1387.600220,639.794556 
	C1379.883545,649.269043 1372.228638,658.874634 1363.675659,667.565247 
	C1354.764038,676.620239 1345.123047,685.040833 1335.196045,692.982666 
	C1329.099243,697.860229 1322.101807,701.796326 1315.064941,705.251404 
	C1310.178955,707.650269 1302.538452,703.128357 1302.285645,697.729553 
	C1301.967773,690.936890 1301.445801,683.504333 1303.734863,677.362854 
	C1310.180176,660.070618 1317.945923,643.265808 1325.345825,626.336365 
	C1328.392334,619.366394 1331.979004,612.633057 1335.053223,605.674194 
	C1337.743408,599.584656 1336.584717,595.562744 1331.901855,592.993286 
	C1325.446167,589.451172 1318.030396,590.192810 1315.038452,595.241394 
	C1311.850342,600.620850 1309.138550,606.307983 1306.560913,612.015320 
	C1304.747559,616.030762 1304.108154,620.666443 1301.874146,624.381592 
	C1298.145142,630.582764 1293.670532,636.352234 1289.307251,642.151123 
	C1283.551270,649.801025 1277.575562,657.285339 1271.746094,664.880615 
	C1269.873291,667.320801 1268.882324,670.446167 1271.664917,672.302490 
	C1272.851929,673.094360 1276.326172,671.723633 1277.927979,670.358337 
	C1281.043701,667.702698 1283.571411,664.357361 1286.710083,661.678711 
	C1286.832764,661.805603 1286.955322,661.932434 1287.002808,662.826904 
	C1283.825562,672.853027 1279.981323,682.640015 1279.687134,693.449646 
	C1279.390625,704.345337 1285.122681,715.055786 1296.702881,717.218079 
	C1309.742920,719.652893 1320.839966,715.139343 1331.479858,708.924561 
	C1344.495728,701.322021 1354.430420,690.018921 1364.996460,679.518982 
	C1366.329834,678.193970 1367.739258,676.945679 1369.620117,675.188538 
	C1369.807007,676.840576 1370.035278,677.516541 1369.931885,678.137268 
	C1366.624023,698.015747 1377.686768,709.772522 1391.456421,715.240662 
	C1402.424194,719.596191 1413.727417,720.227600 1425.416870,719.121094 
	C1438.849731,717.849548 1451.009399,713.255493 1462.663208,706.877625 
	C1478.764771,698.065613 1492.509155,686.244324 1505.730103,673.687439 
	C1505.849365,673.814087 1505.968750,673.940796 1505.952271,674.810852 
	C1500.964966,689.184387 1495.977783,703.557861 1490.668945,718.858154 
	C1494.142090,718.858154 1496.230835,719.324646 1498.009033,718.779053 
	C1506.615723,716.138000 1515.027832,712.957397 1520.870605,705.568726 
	C1528.336182,696.127869 1535.728394,686.626587 1543.019287,677.050232 
	C1556.093018,659.878479 1568.559570,642.144897 1584.893433,627.822449 
	C1590.784302,622.656982 1597.763062,618.698059 1604.433960,614.487183 
	C1605.653076,613.717468 1607.783447,614.390991 1609.493286,614.398315 
	C1609.445923,615.992676 1609.571899,617.618225 1609.292480,619.170837 
	C1609.094360,620.271484 1608.351440,621.275024 1607.846191,622.319275 
	C1602.799561,632.750610 1597.552979,643.091064 1592.755981,653.635986 
	C1587.104126,666.059814 1583.892456,679.173645 1583.029907,692.818115 
	C1582.466675,701.728882 1587.212891,711.540405 1593.735596,714.229858 
	C1607.141968,719.757507 1620.786133,718.760620 1632.665283,711.329529 
	C1643.891724,704.306824 1653.624023,694.891479 1663.988281,686.497375 
	C1668.195068,683.090271 1672.335938,679.601746 1676.506714,676.150146 
	C1675.645386,675.654541 1675.639893,676.247925 1675.562866,676.831970 
	C1673.416870,693.084839 1676.706787,702.455872 1689.645264,711.216980 
	C1703.800415,720.801758 1719.806885,721.156982 1735.924561,718.455444 
	C1754.051147,715.417236 1769.914185,707.171082 1784.608276,696.258240 
	C1798.239502,686.135132 1810.437866,674.627502 1820.402710,660.911621 
	C1827.370117,651.321472 1833.757812,641.310059 1840.687500,631.068359 
	C1847.316650,641.005615 1857.240967,646.234985 1867.375488,651.232605 
	C1870.171875,652.611633 1872.934937,654.237854 1875.329956,656.215027 
	C1880.872559,660.790588 1887.508545,664.965027 1885.896851,673.760620 
	C1885.218750,677.461365 1884.262573,681.259583 1882.610474,684.607605 
	C1875.704346,698.601868 1864.019287,708.062683 1851.249512,716.271912 
	C1843.995972,720.934998 1836.291748,724.693604 1827.349487,725.038818 
	C1823.809692,725.175537 1820.534790,724.032410 1819.797729,720.831604 
	C1819.243896,718.426208 1820.239380,714.837952 1821.884277,712.931763 
	C1824.914062,709.420410 1829.048462,706.886047 1832.462891,703.669006 
	C1833.552979,702.642090 1833.821899,700.743469 1834.466553,699.243774 
	C1832.992188,699.158447 1831.233398,698.509216 1830.092407,699.084717 
	C1824.964233,701.671021 1819.584106,704.063599 1815.127808,707.581238 
	C1811.399536,710.524048 1808.246338,714.604309 1805.907104,718.779541 
	C1803.685059,722.745605 1804.562378,727.054810 1808.053345,730.602173 
	C1812.370972,734.989502 1817.735840,735.461853 1823.280029,734.889771 
	C1836.657837,733.509338 1849.566772,730.104492 1861.943115,724.876648 
	C1878.706909,717.795471 1893.571167,708.033508 1903.175293,692.108704 
	C1909.386963,681.808838 1910.839111,673.957520 1902.799194,664.774109 
	C1899.082275,660.528442 1894.120972,657.158020 1889.235596,654.196167 
	C1880.343628,648.805298 1871.014771,644.141052 1862.005005,638.936890 
	C1854.246582,634.455444 1850.667603,627.645447 1853.491943,621.414734 
	C1855.845215,616.223572 1859.069336,611.223816 1862.784180,606.890503 
	C1875.226440,592.375854 1891.022827,582.585327 1908.719604,575.679932 
	C1918.140747,572.003723 1927.671265,568.771240 1937.958618,569.042664 
	C1943.752319,569.195435 1946.997192,573.193604 1945.002319,578.546143 
	C1943.266357,583.203918 1940.071045,587.298401 1937.877319,591.815063 
	C1937.079712,593.457458 1937.313965,595.601135 1937.077271,597.516113 
	C1938.789795,597.473022 1940.819580,598.016357 1942.162354,597.289917 
	C1949.809692,593.152893 1954.588745,586.470886 1956.764038,578.243469 
	C1960.058594,565.782532 1953.201538,559.146179 1944.162598,556.189697 
	C1934.304199,552.965210 1924.225464,553.557007 1914.206665,555.431641 
	C1894.132324,559.187805 1876.644653,568.636414 1860.282349,580.403809 
	C1850.504761,587.435669 1842.613403,596.407898 1839.688354,608.120483 
	C1836.727661,619.975647 1831.113037,630.296143 1824.775635,640.359253 
	C1814.853394,656.114868 1803.176514,670.332581 1788.032471,681.542847 
	C1773.171875,692.543335 1757.263184,701.458191 1739.651001,707.108826 
	C1731.004395,709.883057 1722.229736,712.098206 1712.920044,710.022705 
	C1703.913574,708.014587 1696.155762,698.763794 1698.278076,689.950745 
	C1700.531128,680.595398 1703.329712,670.918152 1708.165405,662.724121 
	C1722.011108,639.262573 1741.075806,620.517883 1764.452026,606.417358 
	C1769.361816,603.455750 1774.847900,601.243225 1780.323486,599.475769 
	C1788.117065,596.960144 1792.802002,601.397034 1789.867798,609.063538 
	C1787.582642,615.033630 1784.116577,621.152100 1779.568359,625.537964 
	C1767.999634,636.693909 1754.557617,645.549927 1739.983276,652.376953 
	C1732.430054,655.914978 1724.368896,658.368347 1716.189453,661.442444 
	C1715.788574,664.248657 1717.400024,665.929565 1720.666992,665.939331 
	C1723.474487,665.947754 1726.428467,666.139893 1729.064453,665.376526 
	C1738.076172,662.766724 1747.267944,660.452148 1755.853271,656.770935 
	C1770.295044,650.578491 1783.848877,642.950867 1794.254395,630.455872 
	C1801.611206,621.621887 1804.913940,612.113831 1802.910400,600.877808 
	C1801.989502,595.713379 1799.772827,591.119995 1794.854248,588.480469 
	C1783.583740,582.432190 1772.445312,584.973877 1761.441895,589.278870 
	C1746.676514,595.055786 1733.718140,603.940125 1721.244507,613.502686 
	C1714.311646,618.817627 1707.260254,624.197998 1701.322632,630.541443 
	C1691.633545,640.892517 1683.116699,652.335388 1673.523682,662.783752 
	C1666.350342,670.596741 1658.655151,678.047791 1650.470581,684.782898 
	C1641.971313,691.776978 1632.813843,698.041443 1623.553101,704.019165 
	C1615.303589,709.344116 1607.517944,702.999878 1607.013062,694.144958 
	C1606.498291,685.114014 1606.980713,676.137634 1610.677612,667.788574 
	C1617.773315,651.763611 1625.462646,635.998840 1632.405762,619.910400 
	C1635.181641,613.478455 1637.145386,606.579956 1638.547852,599.703979 
	C1639.965332,592.754944 1635.163208,587.117737 1628.133667,588.279724 
	C1621.323364,589.405396 1614.141113,591.640503 1608.422729,595.377991 
	C1591.880005,606.190491 1577.788940,619.944946 1564.654541,634.725342 
	C1553.214478,647.598938 1541.326660,660.074585 1529.275757,672.329529 
M926.686096,655.657715 
	C926.801025,655.779358 926.916016,655.900940 926.976685,656.830994 
	C926.916443,657.658569 927.037292,658.550659 926.768799,659.303955 
	C922.705200,670.703796 921.719910,682.499634 921.981750,694.495483 
	C922.239807,706.316345 929.036743,715.574219 940.435913,717.540161 
	C952.443848,719.611084 963.406189,715.313843 973.333618,709.035400 
	C987.386414,700.148010 999.718384,689.157471 1010.318359,676.270142 
	C1012.015381,674.206970 1014.199524,672.544495 1016.005676,670.840881 
	C1016.005676,678.736572 1015.540894,686.267761 1016.136414,693.714172 
	C1016.731689,701.157349 1019.807434,707.588867 1026.266846,712.204834 
	C1036.425049,719.464050 1057.905029,719.134705 1068.230835,712.048950 
	C1077.177612,705.909668 1085.696411,699.003296 1093.693726,691.661804 
	C1102.311768,683.750488 1110.337158,675.149231 1118.169800,666.443054 
	C1123.031494,661.039124 1127.054565,654.880554 1130.858276,649.848694 
	C1129.811890,660.303345 1128.187866,671.547485 1127.780640,682.835632 
	C1127.594849,687.983948 1129.124146,693.505310 1131.135986,698.332153 
	C1133.054443,702.934814 1138.874023,705.040894 1142.257080,703.756287 
	C1145.377075,702.571594 1148.784424,696.621094 1147.870117,692.393555 
	C1146.265137,684.973022 1148.752197,678.174744 1152.474121,672.704468 
	C1160.986328,660.193848 1170.081909,647.934326 1180.211548,636.720886 
	C1187.087524,629.109131 1195.939209,623.205139 1204.236328,616.975281 
	C1213.158813,610.275879 1222.903198,605.084900 1234.185303,603.405273 
	C1238.005981,602.836548 1241.601807,603.536926 1242.541992,607.497375 
	C1243.588623,611.905823 1244.597290,616.875366 1243.594238,621.121643 
	C1239.461914,638.616150 1231.150635,653.906982 1218.563110,667.053406 
	C1206.543579,679.606567 1192.693970,689.643066 1178.176270,698.872375 
	C1160.473999,710.126221 1141.954224,718.968079 1120.044312,717.103943 
	C1117.280151,716.868774 1114.400879,717.986816 1111.575073,718.477905 
	C1111.511719,718.944885 1111.448364,719.411804 1111.385010,719.878784 
	C1112.677246,720.635010 1113.885132,721.644226 1115.275146,722.107361 
	C1126.197388,725.746399 1137.311401,725.403442 1148.616943,724.157349 
	C1169.730591,721.830200 1188.174805,713.093079 1205.754761,701.829163 
	C1222.493042,691.104492 1236.948608,677.891296 1249.771240,662.771790 
	C1257.431885,653.738953 1264.243896,644.146118 1266.215942,632.260437 
	C1267.168457,626.519165 1267.548584,620.079285 1265.911011,614.641357 
	C1262.790283,604.278015 1246.887817,594.044983 1236.098389,594.011353 
	C1223.082520,593.970825 1211.367188,598.442322 1200.954834,605.720825 
	C1184.195557,617.435791 1169.446655,631.428650 1156.831299,647.599854 
	C1154.937256,650.027771 1152.774414,652.245850 1150.735840,654.560913 
	C1151.936646,646.683411 1153.777954,639.302124 1156.543457,632.285034 
	C1158.317383,627.783691 1160.593018,622.802795 1164.137939,619.801941 
	C1175.318604,610.337341 1187.374878,601.916748 1198.777954,592.702942 
	C1217.178223,577.835327 1234.918823,562.248169 1250.924561,544.721741 
	C1260.867676,533.833923 1270.683838,522.976074 1277.750977,509.886322 
	C1282.975952,500.208649 1286.514160,490.083893 1284.734619,479.070709 
	C1284.125488,475.300507 1281.758789,470.815430 1278.759521,468.602753 
	C1265.626465,458.913727 1250.940308,457.917816 1236.315063,464.496216 
	C1222.378540,470.764801 1212.422729,481.934723 1203.835083,494.332764 
	C1183.734009,523.352966 1169.780640,555.515198 1155.923340,587.742126 
	C1149.490234,602.703125 1144.701538,618.468262 1133.908447,631.301208 
	C1122.978394,644.297180 1112.835083,657.974304 1101.562378,670.655579 
	C1094.668335,678.411011 1086.633789,685.276672 1078.489746,691.761047 
	C1070.792480,697.889648 1062.959839,704.160828 1052.806519,706.185974 
	C1047.338257,707.276672 1042.858643,705.265137 1039.819824,700.633972 
	C1035.599487,694.202393 1035.982056,687.118225 1035.964844,679.963867 
	C1035.930298,665.604126 1040.857544,654.148621 1052.434082,644.772339 
	C1066.942505,633.021667 1080.767700,620.333740 1094.084839,607.234131 
	C1106.112427,595.402954 1117.583374,582.907104 1128.347534,569.915344 
	C1141.297119,554.286133 1153.566162,538.059814 1165.502563,521.636169 
	C1173.225708,511.009796 1180.535522,499.935883 1183.616821,486.783173 
	C1186.699341,473.625488 1181.384888,463.394440 1169.368164,460.306976 
	C1156.546265,457.012604 1144.272949,458.897156 1133.254150,466.271790 
	C1119.094849,475.748291 1107.679199,488.211823 1098.077026,502.086731 
	C1088.135864,516.451172 1078.837402,531.300537 1069.956787,546.350220 
	C1053.967529,573.446838 1040.978394,602.043762 1029.024292,631.117615 
	C1026.092163,638.249084 1024.458130,646.484802 1019.775513,652.206299 
	C1010.276001,663.813477 999.548157,674.537964 988.464172,684.684082 
	C980.737549,691.756958 971.979980,697.945740 962.947510,703.285583 
	C952.812622,709.277222 943.208740,703.483215 944.275024,691.785400 
	C945.297729,680.566772 947.277161,669.071960 951.192688,658.577820 
	C955.524658,646.967468 962.413391,636.290161 968.428650,625.338379 
	C971.082153,620.507324 970.775024,617.443604 965.701050,615.439087 
	C953.299622,610.539734 952.511475,609.879517 943.860107,618.739136 
	C932.504028,630.368530 921.897034,642.751770 910.232727,654.051880 
	C897.049683,666.823303 883.403015,679.179199 869.252319,690.860962 
	C862.639526,696.320007 854.526489,700.084595 846.781372,703.999756 
	C842.625854,706.100464 838.868347,703.918884 836.925171,699.552124 
	C834.367310,693.803833 834.495178,688.079590 836.910522,682.296692 
	C843.356140,666.864258 853.165833,653.649353 864.236633,641.348694 
	C874.383301,630.074829 886.482117,621.061523 899.470520,613.366516 
	C913.026550,605.335022 926.967224,598.030151 943.350647,597.825623 
	C950.834534,597.732178 958.164490,598.072693 963.947510,603.908752 
	C964.789856,604.758850 966.286133,604.960999 967.479858,605.462952 
	C967.732117,604.121338 968.399536,602.703796 968.170410,601.450195 
	C966.445068,592.011475 958.995972,587.939514 951.086365,586.213318 
	C931.756653,581.994812 913.487854,586.969604 896.676208,596.293884 
	C883.885681,603.387878 871.451172,611.401550 859.877441,620.327576 
	C849.858337,628.054626 840.947205,637.328857 832.160217,646.506897 
	C825.568176,653.392334 820.116028,661.355347 813.827698,668.551270 
	C810.800293,672.015564 807.101868,674.921265 803.556824,677.900879 
	C785.450745,693.118225 765.069824,703.980164 741.986877,709.448547 
	C735.219482,711.051819 728.383057,711.517700 721.564087,709.018066 
	C714.955261,706.595398 710.115234,700.199158 709.983398,693.222229 
	C709.716492,679.100708 716.008057,667.315674 723.503296,656.099976 
	C732.469604,642.683044 743.415649,630.996704 755.813171,620.638000 
	C766.262512,611.907166 777.279053,604.075806 790.394470,600.017822 
	C793.461609,599.068787 798.615417,599.191833 800.318970,601.074768 
	C802.085266,603.026855 801.739746,608.011475 800.718750,611.149597 
	C797.857056,619.945251 791.256042,626.057251 784.049011,631.493042 
	C768.057861,643.554199 751.808777,655.119995 731.622070,659.298279 
	C730.091919,659.614990 728.688538,660.544067 727.226196,661.188538 
	C727.041504,661.735168 726.856750,662.281799 726.672058,662.828430 
	C728.633240,663.882935 730.532532,665.697754 732.566101,665.863342 
	C742.571838,666.678101 751.780518,663.181396 760.807861,659.532410 
	C776.659485,653.124878 791.896667,645.574951 803.733887,632.729797 
	C810.748108,625.118286 815.927185,616.581665 814.960754,605.670105 
	C814.115417,596.126160 811.062683,587.947205 798.228394,585.720154 
	C788.156616,583.972473 779.157166,586.491272 770.391541,590.378906 
	C753.035950,598.076172 737.608459,608.844238 723.217407,621.178772 
	C705.039551,636.758911 689.906738,653.870850 686.587463,679.178345 
	C684.436768,695.576050 694.308350,710.044800 707.135803,714.924988 
	C718.264893,719.158997 729.667969,720.199951 741.583862,719.159546 
	C761.035278,717.461060 777.695801,709.380493 793.159851,698.269592 
	C800.738220,692.824463 807.914856,686.820068 815.292175,681.054077 
	C815.533569,681.409241 815.851318,681.659058 815.855835,681.914307 
	C816.200562,701.684875 842.312622,721.232056 865.895020,709.132202 
	C879.977234,701.906860 891.586426,691.676270 902.633789,680.728577 
	C910.860291,672.576416 918.462097,663.793884 926.686096,655.657715 
M919.104736,165.502548 
	C892.736328,177.003296 870.181763,194.163300 849.234253,213.468414 
	C838.864319,223.025192 829.103577,233.321533 819.764893,243.899246 
	C807.494812,257.797119 795.393311,271.907562 784.179443,286.656555 
	C772.786926,301.640472 763.163879,317.853088 757.911011,336.190063 
	C756.649536,340.593781 754.944702,345.490631 755.725464,349.741638 
	C757.966797,361.945160 756.884888,373.769775 752.384094,384.962067 
	C743.845215,406.196045 734.554077,427.130798 725.376343,448.102753 
	C722.483704,454.712769 722.201294,454.568726 728.801636,457.920471 
	C743.221436,465.243134 755.441345,475.079346 764.280884,488.831543 
	C765.483765,490.703003 767.147095,492.278442 768.781006,494.207977 
	C777.103149,481.532013 785.011719,469.313416 793.095154,457.211609 
	C807.283508,435.970062 821.191833,414.525879 835.950317,393.685577 
	C848.020691,376.641113 860.838135,360.095459 873.914551,343.802338 
	C886.565552,328.039307 899.433289,312.380432 913.207886,297.610229 
	C924.966736,285.001404 937.997070,273.554413 950.737366,261.890991 
	C966.440186,247.515518 984.077026,235.964233 1003.904480,228.107712 
	C1018.084534,222.488953 1032.568848,218.111069 1047.670654,225.323105 
	C1047.969360,225.465729 1048.289185,225.583878 1048.612061,225.652893 
	C1053.348877,226.665253 1055.239014,225.178787 1054.916016,220.263428 
	C1054.081299,207.561630 1049.465820,196.519699 1040.366699,187.409653 
	C1030.785034,177.816330 1019.036133,171.846252 1006.669861,166.896088 
	C992.280701,161.136169 977.742859,155.841873 961.919983,156.018997 
	C947.265930,156.183029 933.324036,159.753448 919.104736,165.502548 
M499.452057,980.955811 
	C505.284546,983.966797 510.823059,988.049927 517.015625,989.747925 
	C527.378906,992.589600 538.096008,994.427979 548.780640,995.739624 
	C562.484863,997.421936 575.292236,995.225403 587.097168,986.749695 
	C610.028625,970.285339 627.586487,948.989014 643.465149,926.150818 
	C652.742126,912.807800 660.789551,898.611938 670.007874,885.225098 
	C675.729736,876.915710 683.091980,869.731689 688.763123,861.393127 
	C691.592346,857.233154 693.065491,851.713867 693.704224,846.627625 
	C694.307068,841.828186 690.990051,840.001953 686.539795,841.921997 
	C683.509766,843.229370 680.201294,844.546570 677.899048,846.771606 
	C668.226318,856.120483 658.671997,865.612793 649.476501,875.429260 
	C637.591431,888.117065 626.456787,901.525391 614.270691,913.906555 
	C608.045532,920.231262 600.190918,924.826416 591.337280,927.347656 
	C581.647827,930.106995 570.556885,925.152588 568.275635,915.433777 
	C566.766724,909.005676 565.998901,901.572510 567.720642,895.372803 
	C572.902161,876.714722 578.301086,857.953186 585.759094,840.129028 
	C597.301758,812.542664 610.574829,785.678101 623.246948,758.569580 
	C624.585022,755.707275 624.338989,753.911560 622.181335,751.565918 
	C614.536133,743.254639 607.129456,734.722839 599.680237,726.232666 
	C595.805603,721.816589 592.030945,717.312744 588.053589,712.664490 
	C587.157593,713.688049 586.585449,714.107361 586.327087,714.670593 
	C576.221191,736.702881 565.972168,758.671570 556.099243,780.808105 
	C536.455078,824.853149 517.806274,869.306885 504.309357,915.701172 
	C499.252289,933.084351 494.290985,950.627441 495.171967,969.010986 
	C495.356934,972.871094 497.624908,976.631409 499.452057,980.955811 
M682.607422,590.130310 
	C675.619202,593.075073 668.735535,596.304749 661.623962,598.913391 
	C635.813660,608.381104 609.255981,614.899475 581.906250,617.831177 
	C576.321899,618.429810 570.578491,617.544373 563.998352,617.310669 
	C566.405945,612.945251 567.923462,609.653320 569.912292,606.676208 
	C581.908203,588.719116 593.675049,570.593750 606.206543,553.015198 
	C613.704468,542.497559 622.641785,532.983459 634.093140,526.531555 
	C637.992737,524.334534 642.612549,523.327026 646.999329,522.127686 
	C648.737976,521.652283 650.737976,522.132812 652.619019,522.178162 
	C652.148193,519.983154 652.003601,517.642395 651.107849,515.637207 
	C650.331543,513.899414 648.982971,512.114746 647.407288,511.085815 
	C637.336304,504.509277 626.889526,501.516052 615.175903,507.323975 
	C601.863403,513.924683 592.137756,524.469177 583.211060,535.807617 
	C579.701416,540.265503 576.981140,545.533997 574.843811,550.814758 
	C573.476929,554.191895 574.721985,558.656738 573.269836,561.963745 
	C566.176636,578.116821 558.570129,594.044556 551.193909,609.947083 
	C535.865601,604.697144 529.555908,606.302551 526.760254,615.583679 
	C524.523926,623.007996 527.944031,626.893005 539.234070,629.591431 
	C538.911377,630.529053 538.660339,631.478760 538.268066,632.366150 
	C529.183716,652.916992 519.734070,673.316895 511.182220,694.086609 
	C508.291718,701.106750 507.459839,709.025208 506.189941,716.617249 
	C505.948883,718.058472 507.681671,720.582703 509.174011,721.438721 
	C518.825012,726.974976 532.433350,723.552246 539.572571,713.879089 
	C544.850342,706.728027 549.936401,699.432190 554.974182,692.109009 
	C556.597046,689.750000 557.794556,687.098389 559.186584,684.580627 
	C558.876831,684.086731 558.567017,683.592896 558.257263,683.099060 
	C556.465576,683.618164 554.312622,683.683350 552.962830,684.757690 
	C550.664795,686.586853 548.915833,689.092712 546.857056,691.238403 
	C542.762329,695.506165 538.810242,699.947205 534.370911,703.826416 
	C532.993042,705.030396 529.768066,705.546753 528.234436,704.750000 
	C526.661865,703.933044 525.182800,701.044556 525.335999,699.201904 
	C525.630005,695.665833 526.646606,692.010681 528.169617,688.785706 
	C536.994263,670.099670 546.067627,651.531189 555.022278,632.906311 
	C556.803101,629.202393 558.649475,629.061462 560.986694,632.439514 
	C567.741516,642.202332 574.809631,651.758545 581.292297,661.697510 
	C597.394897,686.385254 615.520386,709.480957 635.554260,731.056519 
	C653.056458,749.905640 672.890625,765.666260 696.582031,776.323853 
	C719.473389,786.621521 743.041138,792.718384 768.282593,788.915710 
	C779.893677,787.166443 791.273132,783.342468 799.386047,774.754944 
	C811.910889,761.497437 814.396423,745.101868 810.234619,727.594910 
	C809.376465,723.985291 807.317200,721.093079 803.296570,722.284485 
	C799.483337,723.414368 801.102600,726.762695 801.671387,729.444519 
	C803.981445,740.335449 798.520325,752.833740 789.322266,759.423035 
	C776.683838,768.476990 762.149841,769.291748 747.907776,767.670837 
	C722.910034,764.825806 700.171143,754.739441 679.095459,741.288757 
	C670.653381,735.901001 662.671997,729.531555 655.382812,722.653259 
	C641.804077,709.839966 628.424744,696.748413 615.831848,682.977600 
	C604.831055,670.947937 594.993774,657.851074 584.705688,645.174377 
	C580.109558,639.511108 575.668274,633.722046 570.992737,627.781738 
	C583.510376,626.487183 595.309631,625.294739 607.102478,624.041138 
	C628.683960,621.747009 649.674927,616.750427 670.202820,609.829590 
	C697.842651,600.511047 723.387817,587.772583 742.129761,564.356750 
	C751.606567,552.516541 755.827148,538.710327 753.614319,523.959290 
	C750.317505,501.982635 735.958130,487.557739 716.744934,478.553375 
	C694.618591,468.183807 670.527344,465.343079 646.353455,464.081879 
	C636.801392,463.583527 627.181519,463.608673 617.628540,464.098328 
	C605.413513,464.724396 593.064209,465.121094 581.077759,467.296814 
	C559.470764,471.218811 538.297241,476.899475 518.935486,487.958984 
	C505.251495,495.775330 491.983032,504.039764 480.958862,515.505859 
	C470.629608,526.249084 464.275543,538.022400 464.608612,553.880127 
	C464.879547,566.779236 468.863800,576.614868 478.299866,584.844543 
	C485.084717,590.761963 492.735077,594.768372 501.684875,595.858093 
	C503.288300,596.053345 505.085693,594.656006 506.793518,593.993958 
	C505.859100,592.467712 505.280792,590.375122 503.923370,589.521484 
	C499.869965,586.972473 495.520142,584.892029 491.270020,582.659119 
	C477.913727,575.642151 474.678467,566.949463 478.781708,552.365173 
	C482.303619,539.847229 490.458252,530.767151 499.874084,522.929443 
	C517.410034,508.332611 537.924622,499.210236 560.039368,494.125427 
	C576.079224,490.437378 592.306946,487.339294 608.602295,485.060730 
	C621.839783,483.209747 635.301086,482.245758 648.665283,482.224548 
	C660.859619,482.205200 673.086792,483.707031 685.244751,485.038544 
	C698.598938,486.501007 711.570557,489.699310 723.251343,496.667419 
	C735.951660,504.243744 743.515686,515.137756 742.921326,530.394043 
	C742.455200,542.357361 735.755432,551.542175 727.654785,559.474060 
	C714.698547,572.160156 699.745850,582.147705 682.607422,590.130310 
M140.606812,575.116516 
	C155.364838,566.445007 170.143158,557.807617 184.862686,549.071228 
	C187.589249,547.452942 189.873581,547.399170 192.618240,549.176025 
	C197.217270,552.153442 202.086655,554.710144 206.804840,557.506958 
	C238.396759,576.234253 269.947906,595.030945 301.622009,613.618164 
	C304.191589,615.126099 307.574799,615.861694 310.591278,615.893921 
	C329.581299,616.096680 348.574554,616.005371 367.566742,615.987732 
	C369.068481,615.986328 370.570007,615.807068 372.071655,615.710449 
	C372.130371,615.293640 372.189087,614.876831 372.247803,614.460022 
	C323.068787,585.285522 273.889801,556.111084 223.706848,526.341064 
	C230.113968,522.418762 235.307373,519.239441 241.456970,515.474731 
	C238.444748,513.854065 236.759094,512.872803 235.011353,512.018616 
	C221.261230,505.298248 207.438705,498.722046 193.779434,491.822449 
	C189.915390,489.870667 186.706528,490.119629 182.958008,491.956055 
	C171.014252,497.807343 158.930832,503.372955 146.925400,509.099304 
	C143.123596,510.912689 139.397263,512.884277 134.437805,515.388672 
	C141.374969,519.361084 147.003952,522.584351 153.648743,526.389282 
	C102.925209,556.229492 53.272957,585.439453 3.620706,614.649414 
	C3.790750,615.099915 3.960794,615.550415 4.130839,616.000916 
	C5.928796,616.000916 7.726753,616.000977 9.524711,616.000916 
	C25.184940,616.000854 40.878254,615.381470 56.493912,616.215759 
	C67.124977,616.783691 75.803909,613.397095 84.538048,608.095581 
	C102.862411,596.972839 121.478485,586.330750 140.606812,575.116516 
M256.500000,724.999390 
	C219.338455,724.999390 182.176895,724.998413 145.015350,724.999756 
	C121.685226,725.000610 98.354538,725.089661 75.025467,724.934082 
	C70.497398,724.903931 68.742783,726.403015 68.937119,730.991211 
	C69.211891,737.478516 68.994171,743.986450 69.001205,750.485535 
	C69.010406,758.981750 69.016380,758.996399 77.498848,758.996948 
	C143.823074,759.001404 210.147308,759.000549 276.471527,758.998962 
	C284.970306,758.998779 293.470367,758.897156 301.967316,759.018860 
	C305.579987,759.070557 307.080261,757.658997 307.017395,754.009094 
	C306.885315,746.345886 306.796356,738.672180 307.061432,731.015564 
	C307.219208,726.458801 305.553833,724.868286 300.992950,724.931885 
	C286.497803,725.134033 271.998016,725.002197 256.500000,724.999390 
M671.395508,568.873291 
	C675.216980,566.933716 679.068176,565.050171 682.854492,563.044189 
	C694.395630,556.929565 704.707397,549.124817 713.742310,539.731445 
	C721.866577,531.284973 720.300049,521.903320 709.939209,516.570557 
	C706.277222,514.685791 702.215881,513.586792 698.368103,512.050781 
	C693.474121,510.097076 690.882812,512.078796 688.623779,516.569397 
	C681.317383,531.093811 673.620850,545.422119 666.054199,559.815247 
	C665.456665,560.951843 664.702209,562.006042 664.132141,562.919861 
	C657.213989,559.816284 650.596558,556.857666 643.988281,553.878845 
	C640.630310,552.365173 637.910034,553.170776 635.559021,555.932739 
	C630.400940,561.992310 625.039429,567.884583 620.033447,574.065796 
	C616.580322,578.329529 613.583740,582.963013 610.383118,587.431274 
	C610.702454,587.782898 611.021851,588.134460 611.341187,588.486084 
	C631.732666,583.963745 651.647644,577.934814 671.395508,568.873291 
M1019.000732,587.788696 
	C1020.636047,586.256409 1022.828674,585.018494 1023.818237,583.145081 
	C1031.404907,568.781616 1038.774048,554.303101 1046.152344,539.830444 
	C1046.769897,538.619019 1046.958862,537.189026 1047.561035,535.127747 
	C1016.429382,544.128662 986.187378,552.872437 954.762878,561.958008 
	C971.767700,567.073242 984.386963,575.830688 991.029053,591.732239 
	C991.394958,592.608154 993.718323,593.324402 994.925415,593.084106 
	C1002.726868,591.531189 1010.471191,589.691711 1019.000732,587.788696 
M137.144226,601.005615 
	C137.104767,612.333496 137.133514,623.662231 136.986359,634.988708 
	C136.939178,638.619751 138.392776,640.055054 142.018433,640.017639 
	C153.013290,639.903992 164.010864,639.901672 175.005661,640.018738 
	C178.656174,640.057617 180.051270,638.577393 180.012131,634.968506 
	C179.896469,624.306885 179.898041,613.642578 180.008499,602.980896 
	C180.046432,599.320374 178.505234,597.948364 174.919662,597.983459 
	C163.924698,598.091125 152.926666,597.941650 141.933487,598.118591 
	C140.384415,598.143494 138.855637,599.430664 137.144226,601.005615 
M166.484070,653.998901 
	C158.324692,654.006592 150.164001,654.103271 142.006561,653.981445 
	C138.371094,653.927124 136.947266,655.412354 136.985565,659.026428 
	C137.098541,669.682312 137.100800,680.341003 136.984680,690.996887 
	C136.945099,694.629517 138.399490,696.055908 142.019516,696.018555 
	C153.008469,695.905090 164.000122,695.904236 174.989059,696.018799 
	C178.621704,696.056641 180.065979,694.604797 180.011429,690.983887 
	C179.888519,682.826477 180.050491,674.665222 179.978973,666.506531 
	C179.854340,652.288513 181.686127,654.176758 166.484070,653.998901 
M237.998993,623.496460 
	C237.986511,616.500183 237.945084,609.503723 237.975983,602.507629 
	C237.988174,599.751160 237.071823,598.036438 233.986954,598.044739 
	C222.659973,598.075195 211.329315,597.924500 200.010513,598.230652 
	C198.658707,598.267273 196.265106,600.661194 196.228516,602.013184 
	C195.922302,613.331909 195.922333,624.666199 196.228912,635.984924 
	C196.265533,637.337219 198.660095,639.731628 200.012482,639.768250 
	C211.331223,640.074646 222.665451,640.074646 233.984161,639.767883 
	C235.336685,639.731201 237.540771,637.442505 237.762466,635.960205 
	C238.323349,632.210205 237.980072,628.324890 237.998993,623.496460 
M230.358124,654.000671 
	C220.692673,654.005615 211.025879,654.105774 201.362473,653.967773 
	C197.603165,653.914185 195.905212,655.171143 195.964630,659.146484 
	C196.121521,669.642761 196.105133,680.144104 195.967331,690.640991 
	C195.917908,694.406799 197.189087,696.091553 201.155869,696.032837 
	C211.652176,695.877197 222.154678,695.853516 232.649841,696.045166 
	C236.916672,696.122986 238.102646,694.256226 238.039825,690.325989 
	C237.882690,680.496460 238.016571,670.662537 237.986649,660.830505 
	C237.966507,654.215027 237.930649,654.215149 230.358124,654.000671 
M644.833740,679.684631 
	C648.540955,683.645264 652.248230,687.605957 657.060303,692.747009 
	C659.041626,687.981323 661.300903,684.580322 661.822266,680.930969 
	C663.783325,667.205994 666.711243,653.894592 674.122803,641.906128 
	C675.684814,639.379578 676.733276,636.535522 678.236206,633.380493 
	C676.659363,633.380493 675.988953,633.253296 675.384277,633.398987 
	C657.850769,637.623657 640.325806,641.884277 622.794067,646.116516 
	C618.928772,647.049622 618.252625,649.380859 621.075134,652.599854 
	C628.837830,661.453064 636.642029,670.269836 644.833740,679.684631 
M1344.630615,540.063782 
	C1338.167358,545.154846 1331.653320,550.183533 1325.266724,555.369141 
	C1322.850342,557.331238 1319.659668,559.645935 1321.247192,563.099182 
	C1322.307007,565.404968 1325.223755,566.881897 1327.384033,568.638000 
	C1327.852905,569.019165 1328.648804,568.981750 1329.279663,569.182373 
	C1337.011353,571.641052 1341.406616,570.190369 1346.539917,564.026062 
	C1353.163940,556.071777 1354.568970,546.185364 1356.772339,536.661804 
	C1357.582642,533.159241 1354.136230,533.580994 1352.395386,534.502502 
	C1349.815796,535.867981 1347.655273,538.025208 1344.630615,540.063782 
M839.035950,601.906067 
	C839.791565,605.941956 841.582031,603.583313 843.099487,602.538757 
	C851.819702,596.535889 860.510681,590.490417 869.248474,584.513428 
	C871.983582,582.642517 874.832947,580.938782 877.630066,579.158569 
	C877.478333,578.841553 877.326599,578.524536 877.174866,578.207581 
	C863.236816,580.571167 849.298828,582.934753 835.125061,585.338379 
	C836.485168,590.948853 837.723389,596.056946 839.035950,601.906067 
M772.978516,736.689758 
	C773.084473,737.951965 773.190430,739.214172 773.296448,740.476379 
	C773.748901,740.549438 774.201355,740.622559 774.653809,740.695618 
	C775.749634,739.312012 776.845520,737.928406 777.941345,736.544800 
	C777.699646,736.147156 777.457886,735.749451 777.216125,735.351746 
	C775.957275,735.673828 774.698364,735.995972 772.978516,736.689758 
z"/>
<path fill="#2257BF" opacity="1.000000" stroke="none" 
	d="
M1027.531372,1.000000 
	C1034.730713,1.652471 1041.449341,2.488199 1048.193970,2.927639 
	C1091.502319,5.749356 1134.413452,11.590218 1176.854736,20.557833 
	C1200.884766,25.635220 1224.860718,31.133545 1248.567017,37.531414 
	C1272.718994,44.049591 1295.456177,54.518078 1317.093872,66.959366 
	C1331.287109,75.120255 1344.843506,84.484695 1358.144531,94.061119 
	C1365.039795,99.025574 1370.674072,105.717506 1377.028809,111.462044 
	C1389.296997,122.551994 1399.260986,135.566055 1408.547363,149.117661 
	C1426.780273,175.725037 1439.317993,204.503586 1442.088257,237.076553 
	C1445.568237,277.991699 1436.986328,316.427460 1418.126953,352.574341 
	C1409.133423,369.811951 1398.057251,385.836975 1384.507568,399.913239 
	C1373.459229,411.391052 1362.275024,422.763580 1350.670288,433.671143 
	C1343.074829,440.810303 1334.676636,447.105591 1326.531616,453.646332 
	C1321.514160,457.675629 1316.312256,461.476746 1311.156494,465.331299 
	C1310.006226,466.191345 1308.702393,466.846130 1307.014404,467.871704 
	C1297.614990,449.069092 1282.257324,439.343994 1260.754517,436.712799 
	C1264.823853,433.598236 1267.991333,431.214050 1271.116455,428.775604 
	C1287.193115,416.231537 1303.586060,404.064941 1319.220093,390.990967 
	C1330.782104,381.322235 1341.798096,370.897095 1352.265991,360.045502 
	C1372.167358,339.414703 1388.684326,316.461517 1397.242676,288.610291 
	C1403.595337,267.937164 1404.424683,247.005753 1401.310913,225.601776 
	C1397.964600,202.598709 1389.018799,182.244110 1374.957886,163.996094 
	C1366.072144,152.464157 1355.339355,142.852982 1343.509277,134.372742 
	C1308.773193,109.472580 1269.234497,96.196426 1228.010864,87.721390 
	C1203.355347,82.652519 1178.316284,79.243530 1153.322998,76.091469 
	C1135.563110,73.851646 1117.611328,72.798019 1099.710571,72.086662 
	C1072.290771,70.997032 1044.837402,70.032928 1017.404968,70.186478 
	C992.825928,70.324051 968.155334,70.985107 943.704285,73.303734 
	C903.587830,77.107872 863.476196,81.501350 823.631042,87.446198 
	C795.111511,91.701294 767.002258,98.765442 738.761658,104.817215 
	C702.981445,112.484673 667.903687,122.756958 633.400269,134.850922 
	C598.701233,147.013458 565.130005,161.778412 533.449585,180.641769 
	C507.730225,195.955704 483.216553,212.889786 460.699677,232.687042 
	C436.520111,253.946091 415.478210,277.796814 400.863556,306.643250 
	C388.752014,330.549042 380.350983,355.662506 379.952515,382.919159 
	C379.771210,395.320312 385.283112,405.680145 390.724976,416.197601 
	C401.440460,436.907349 419.975403,448.247955 439.971954,458.042267 
	C453.343231,464.591553 466.504700,471.570007 479.735931,478.403076 
	C480.998840,479.055267 482.089935,480.040253 483.362488,480.942871 
	C475.917511,487.750366 468.925171,494.283173 461.708923,500.558441 
	C460.848999,501.306213 458.676849,500.982635 457.267090,500.594971 
	C436.117340,494.779053 417.269867,484.385071 399.903656,471.210480 
	C383.663910,458.890442 369.188812,444.578827 357.624359,427.893036 
	C346.881470,412.392639 338.937775,395.169312 338.109894,375.850189 
	C337.622803,364.482513 338.898224,353.050140 338.949524,341.644928 
	C338.985779,333.579376 339.045135,325.387268 337.737732,317.475800 
	C336.248901,308.466217 338.726593,300.322906 341.139832,292.115021 
	C348.997620,265.389374 362.836700,241.585754 380.481049,220.492340 
	C394.254395,204.026627 410.066406,189.116684 426.015076,174.666000 
	C439.516998,162.432190 454.106842,151.277115 468.962738,140.693909 
	C483.683472,130.206924 499.049744,120.537804 514.656921,111.405602 
	C534.583008,99.746307 554.572144,88.012680 575.390381,78.111534 
	C596.049377,68.286133 617.584290,60.190937 639.066467,52.231388 
	C681.402832,36.544941 725.095398,25.616884 769.455811,17.519051 
	C790.667908,13.646848 812.055664,10.486108 833.488281,8.138731 
	C858.709717,5.376385 884.066040,3.846241 909.363098,1.771998 
	C909.689758,1.745211 910.005798,1.589672 910.663452,1.247117 
	C949.687561,1.000000 988.375183,1.000000 1027.531372,1.000000 
z"/>
<path fill="#2257BF" opacity="1.000000" stroke="none" 
	d="
M1416.468628,1248.000000 
	C1408.802612,1247.047974 1401.621948,1245.936890 1394.404663,1245.172485 
	C1369.231201,1242.506226 1344.430054,1237.679565 1320.170166,1230.667725 
	C1299.600464,1224.722656 1279.206299,1217.960327 1259.185303,1210.370483 
	C1218.807129,1195.062988 1180.340820,1175.717407 1144.381714,1151.756226 
	C1124.427856,1138.460083 1104.931519,1124.423950 1085.802734,1109.962280 
	C1073.402100,1100.587280 1061.706299,1090.199341 1050.291016,1079.621460 
	C1035.411255,1065.833374 1020.852905,1051.671387 1006.661926,1037.175171 
	C994.850342,1025.109497 983.669556,1012.418091 972.387634,999.843750 
	C956.919617,982.603699 941.381042,965.416992 926.317627,947.826477 
	C912.062805,931.180237 898.055847,914.298096 884.536499,897.052002 
	C869.380676,877.718140 854.738403,857.974243 840.174072,838.186890 
	C831.027222,825.759766 822.501648,812.876892 813.543945,800.307800 
	C811.431946,797.344360 811.838440,795.899048 814.647766,793.439514 
	C825.302002,784.111755 830.959106,771.844727 833.927490,758.194336 
	C834.510071,755.515015 835.257690,752.871582 836.218567,749.065796 
	C839.622620,752.715759 842.415100,755.417480 844.874023,758.394836 
	C858.599121,775.013672 872.144104,791.781982 885.944641,808.337463 
	C898.679871,823.615051 911.602539,838.737793 924.557068,853.830505 
	C930.617310,860.891052 936.942017,867.724854 943.156372,874.652893 
	C957.343933,890.470093 971.291260,906.512512 985.815063,922.014893 
	C995.477844,932.328674 1005.809937,942.035889 1016.131470,951.706116 
	C1025.936523,960.892578 1035.959473,969.862488 1046.171875,978.594055 
	C1059.763184,990.214722 1073.620605,1001.524475 1087.382568,1012.945007 
	C1097.089722,1021.000488 1106.475952,1029.499268 1116.634888,1036.940796 
	C1132.147095,1048.303833 1147.645264,1059.868530 1164.163574,1069.631592 
	C1186.863159,1083.048218 1210.017456,1095.914551 1233.881592,1107.083618 
	C1260.737061,1119.652710 1288.315674,1130.829590 1316.103638,1141.209717 
	C1342.830322,1151.193359 1370.588135,1158.117432 1398.803223,1162.577026 
	C1413.180420,1164.849487 1427.791992,1165.685669 1442.314941,1166.976440 
	C1463.478516,1168.857666 1484.316284,1164.934082 1505.251343,1163.035889 
	C1533.218262,1160.500244 1558.703735,1150.820557 1581.042236,1133.861816 
	C1600.881348,1118.800659 1616.142090,1099.915527 1624.459961,1076.047607 
	C1631.430420,1056.045898 1631.222534,1035.657349 1627.591553,1015.069824 
	C1626.595215,1009.420227 1625.253662,1003.571838 1625.786133,997.978027 
	C1626.451172,990.991394 1632.472412,987.866028 1639.411987,989.329834 
	C1648.684814,991.285583 1654.537354,997.483704 1656.867065,1005.944641 
	C1660.019165,1017.392090 1662.169678,1029.182251 1663.811157,1040.956421 
	C1664.998413,1049.473999 1664.953003,1058.205078 1664.939575,1066.840088 
	C1664.910400,1085.737671 1661.219604,1104.096924 1655.418579,1121.985352 
	C1651.683838,1133.501953 1647.896973,1145.111572 1642.783691,1156.048584 
	C1631.948242,1179.225464 1613.869141,1195.954224 1592.401245,1209.254395 
	C1559.549683,1229.606934 1523.364258,1240.523071 1485.566895,1246.827759 
	C1483.606079,1247.154663 1481.612915,1247.286743 1479.317383,1247.754761 
	C1458.312378,1248.000000 1437.624878,1248.000000 1416.468628,1248.000000 
z"/>
<path fill="#2257BF" opacity="1.000000" stroke="none" 
	d="
M919.455444,165.351379 
	C933.324036,159.753448 947.265930,156.183029 961.919983,156.018997 
	C977.742859,155.841873 992.280701,161.136169 1006.669861,166.896088 
	C1019.036133,171.846252 1030.785034,177.816330 1040.366699,187.409653 
	C1049.465820,196.519699 1054.081299,207.561630 1054.916016,220.263428 
	C1055.239014,225.178787 1053.348877,226.665253 1048.612061,225.652893 
	C1048.289185,225.583878 1047.969360,225.465729 1047.670654,225.323105 
	C1032.568848,218.111069 1018.084534,222.488953 1003.904480,228.107712 
	C984.077026,235.964233 966.440186,247.515518 950.737366,261.890991 
	C937.997070,273.554413 924.966736,285.001404 913.207886,297.610229 
	C899.433289,312.380432 886.565552,328.039307 873.914551,343.802338 
	C860.838135,360.095459 848.020691,376.641113 835.950317,393.685577 
	C821.191833,414.525879 807.283508,435.970062 793.095154,457.211609 
	C785.011719,469.313416 777.103149,481.532013 768.781006,494.207977 
	C767.147095,492.278442 765.483765,490.703003 764.280884,488.831543 
	C755.441345,475.079346 743.221436,465.243134 728.801636,457.920471 
	C722.201294,454.568726 722.483704,454.712769 725.376343,448.102753 
	C734.554077,427.130798 743.845215,406.196045 752.384094,384.962067 
	C756.884888,373.769775 757.966797,361.945160 755.725464,349.741638 
	C754.944702,345.490631 756.649536,340.593781 757.911011,336.190063 
	C763.163879,317.853088 772.786926,301.640472 784.179443,286.656555 
	C795.393311,271.907562 807.494812,257.797119 819.764893,243.899246 
	C829.103577,233.321533 838.864319,223.025192 849.234253,213.468414 
	C870.181763,194.163300 892.736328,177.003296 919.455444,165.351379 
z"/>
<path fill="#101112" opacity="1.000000" stroke="none" 
	d="
M926.342163,655.292114 
	C918.462097,663.793884 910.860291,672.576416 902.633789,680.728577 
	C891.586426,691.676270 879.977234,701.906860 865.895020,709.132202 
	C842.312622,721.232056 816.200562,701.684875 815.855835,681.914307 
	C815.851318,681.659058 815.533569,681.409241 815.292175,681.054077 
	C807.914856,686.820068 800.738220,692.824463 793.159851,698.269592 
	C777.695801,709.380493 761.035278,717.461060 741.583862,719.159546 
	C729.667969,720.199951 718.264893,719.158997 707.135803,714.924988 
	C694.308350,710.044800 684.436768,695.576050 686.587463,679.178345 
	C689.906738,653.870850 705.039551,636.758911 723.217407,621.178772 
	C737.608459,608.844238 753.035950,598.076172 770.391541,590.378906 
	C779.157166,586.491272 788.156616,583.972473 798.228394,585.720154 
	C811.062683,587.947205 814.115417,596.126160 814.960754,605.670105 
	C815.927185,616.581665 810.748108,625.118286 803.733887,632.729797 
	C791.896667,645.574951 776.659485,653.124878 760.807861,659.532410 
	C751.780518,663.181396 742.571838,666.678101 732.566101,665.863342 
	C730.532532,665.697754 728.633240,663.882935 726.672058,662.828430 
	C726.856750,662.281799 727.041504,661.735168 727.226196,661.188538 
	C728.688538,660.544067 730.091919,659.614990 731.622070,659.298279 
	C751.808777,655.119995 768.057861,643.554199 784.049011,631.493042 
	C791.256042,626.057251 797.857056,619.945251 800.718750,611.149597 
	C801.739746,608.011475 802.085266,603.026855 800.318970,601.074768 
	C798.615417,599.191833 793.461609,599.068787 790.394470,600.017822 
	C777.279053,604.075806 766.262512,611.907166 755.813171,620.638000 
	C743.415649,630.996704 732.469604,642.683044 723.503296,656.099976 
	C716.008057,667.315674 709.716492,679.100708 709.983398,693.222229 
	C710.115234,700.199158 714.955261,706.595398 721.564087,709.018066 
	C728.383057,711.517700 735.219482,711.051819 741.986877,709.448547 
	C765.069824,703.980164 785.450745,693.118225 803.556824,677.900879 
	C807.101868,674.921265 810.800293,672.015564 813.827698,668.551270 
	C820.116028,661.355347 825.568176,653.392334 832.160217,646.506897 
	C840.947205,637.328857 849.858337,628.054626 859.877441,620.327576 
	C871.451172,611.401550 883.885681,603.387878 896.676208,596.293884 
	C913.487854,586.969604 931.756653,581.994812 951.086365,586.213318 
	C958.995972,587.939514 966.445068,592.011475 968.170410,601.450195 
	C968.399536,602.703796 967.732117,604.121338 967.479858,605.462952 
	C966.286133,604.960999 964.789856,604.758850 963.947510,603.908752 
	C958.164490,598.072693 950.834534,597.732178 943.350647,597.825623 
	C926.967224,598.030151 913.026550,605.335022 899.470520,613.366516 
	C886.482117,621.061523 874.383301,630.074829 864.236633,641.348694 
	C853.165833,653.649353 843.356140,666.864258 836.910522,682.296692 
	C834.495178,688.079590 834.367310,693.803833 836.925171,699.552124 
	C838.868347,703.918884 842.625854,706.100464 846.781372,703.999756 
	C854.526489,700.084595 862.639526,696.320007 869.252319,690.860962 
	C883.403015,679.179199 897.049683,666.823303 910.232727,654.051880 
	C921.897034,642.751770 932.504028,630.368530 943.860107,618.739136 
	C952.511475,609.879517 953.299622,610.539734 965.701050,615.439087 
	C970.775024,617.443604 971.082153,620.507324 968.428650,625.338379 
	C962.413391,636.290161 955.524658,646.967468 951.192688,658.577820 
	C947.277161,669.071960 945.297729,680.566772 944.275024,691.785400 
	C943.208740,703.483215 952.812622,709.277222 962.947510,703.285583 
	C971.979980,697.945740 980.737549,691.756958 988.464172,684.684082 
	C999.548157,674.537964 1010.276001,663.813477 1019.775513,652.206299 
	C1024.458130,646.484802 1026.092163,638.249084 1029.024292,631.117615 
	C1040.978394,602.043762 1053.967529,573.446838 1069.956787,546.350220 
	C1078.837402,531.300537 1088.135864,516.451172 1098.077026,502.086731 
	C1107.679199,488.211823 1119.094849,475.748291 1133.254150,466.271790 
	C1144.272949,458.897156 1156.546265,457.012604 1169.368164,460.306976 
	C1181.384888,463.394440 1186.699341,473.625488 1183.616821,486.783173 
	C1180.535522,499.935883 1173.225708,511.009796 1165.502563,521.636169 
	C1153.566162,538.059814 1141.297119,554.286133 1128.347534,569.915344 
	C1117.583374,582.907104 1106.112427,595.402954 1094.084839,607.234131 
	C1080.767700,620.333740 1066.942505,633.021667 1052.434082,644.772339 
	C1040.857544,654.148621 1035.930298,665.604126 1035.964844,679.963867 
	C1035.982056,687.118225 1035.599487,694.202393 1039.819824,700.633972 
	C1042.858643,705.265137 1047.338257,707.276672 1052.806519,706.185974 
	C1062.959839,704.160828 1070.792480,697.889648 1078.489746,691.761047 
	C1086.633789,685.276672 1094.668335,678.411011 1101.562378,670.655579 
	C1112.835083,657.974304 1122.978394,644.297180 1133.908447,631.301208 
	C1144.701538,618.468262 1149.490234,602.703125 1155.923340,587.742126 
	C1169.780640,555.515198 1183.734009,523.352966 1203.835083,494.332764 
	C1212.422729,481.934723 1222.378540,470.764801 1236.315063,464.496216 
	C1250.940308,457.917816 1265.626465,458.913727 1278.759521,468.602753 
	C1281.758789,470.815430 1284.125488,475.300507 1284.734619,479.070709 
	C1286.514160,490.083893 1282.975952,500.208649 1277.750977,509.886322 
	C1270.683838,522.976074 1260.867676,533.833923 1250.924561,544.721741 
	C1234.918823,562.248169 1217.178223,577.835327 1198.777954,592.702942 
	C1187.374878,601.916748 1175.318604,610.337341 1164.137939,619.801941 
	C1160.593018,622.802795 1158.317383,627.783691 1156.543457,632.285034 
	C1153.777954,639.302124 1151.936646,646.683411 1150.735840,654.560913 
	C1152.774414,652.245850 1154.937256,650.027771 1156.831299,647.599854 
	C1169.446655,631.428650 1184.195557,617.435791 1200.954834,605.720825 
	C1211.367188,598.442322 1223.082520,593.970825 1236.098389,594.011353 
	C1246.887817,594.044983 1262.790283,604.278015 1265.911011,614.641357 
	C1267.548584,620.079285 1267.168457,626.519165 1266.215942,632.260437 
	C1264.243896,644.146118 1257.431885,653.738953 1249.771240,662.771790 
	C1236.948608,677.891296 1222.493042,691.104492 1205.754761,701.829163 
	C1188.174805,713.093079 1169.730591,721.830200 1148.616943,724.157349 
	C1137.311401,725.403442 1126.197388,725.746399 1115.275146,722.107361 
	C1113.885132,721.644226 1112.677246,720.635010 1111.385010,719.878784 
	C1111.448364,719.411804 1111.511719,718.944885 1111.575073,718.477905 
	C1114.400879,717.986816 1117.280151,716.868774 1120.044312,717.103943 
	C1141.954224,718.968079 1160.473999,710.126221 1178.176270,698.872375 
	C1192.693970,689.643066 1206.543579,679.606567 1218.563110,667.053406 
	C1231.150635,653.906982 1239.461914,638.616150 1243.594238,621.121643 
	C1244.597290,616.875366 1243.588623,611.905823 1242.541992,607.497375 
	C1241.601807,603.536926 1238.005981,602.836548 1234.185303,603.405273 
	C1222.903198,605.084900 1213.158813,610.275879 1204.236328,616.975281 
	C1195.939209,623.205139 1187.087524,629.109131 1180.211548,636.720886 
	C1170.081909,647.934326 1160.986328,660.193848 1152.474121,672.704468 
	C1148.752197,678.174744 1146.265137,684.973022 1147.870117,692.393555 
	C1148.784424,696.621094 1145.377075,702.571594 1142.257080,703.756287 
	C1138.874023,705.040894 1133.054443,702.934814 1131.135986,698.332153 
	C1129.124146,693.505310 1127.594849,687.983948 1127.780640,682.835632 
	C1128.187866,671.547485 1129.811890,660.303345 1130.858276,649.848694 
	C1127.054565,654.880554 1123.031494,661.039124 1118.169800,666.443054 
	C1110.337158,675.149231 1102.311768,683.750488 1093.693726,691.661804 
	C1085.696411,699.003296 1077.177612,705.909668 1068.230835,712.048950 
	C1057.905029,719.134705 1036.425049,719.464050 1026.266846,712.204834 
	C1019.807434,707.588867 1016.731689,701.157349 1016.136414,693.714172 
	C1015.540894,686.267761 1016.005676,678.736572 1016.005676,670.840881 
	C1014.199524,672.544495 1012.015381,674.206970 1010.318359,676.270142 
	C999.718384,689.157471 987.386414,700.148010 973.333618,709.035400 
	C963.406189,715.313843 952.443848,719.611084 940.435913,717.540161 
	C929.036743,715.574219 922.239807,706.316345 921.981750,694.495483 
	C921.719910,682.499634 922.705200,670.703796 926.768799,659.303955 
	C927.037292,658.550659 926.916443,657.658569 927.215942,656.315552 
	C927.477234,655.380127 927.499390,654.960205 927.521606,654.540283 
	C927.128418,654.790894 926.735291,655.041565 926.342163,655.292114 
M1051.178589,633.277893 
	C1058.218994,627.585205 1065.575195,622.234253 1072.210571,616.103271 
	C1078.777588,610.035278 1084.821533,603.359375 1090.730591,596.630066 
	C1100.859009,585.095764 1111.336304,573.785522 1120.513550,561.518188 
	C1133.042114,544.771240 1144.944580,527.506592 1156.212646,509.886566 
	C1162.021484,500.803192 1166.165039,490.592041 1170.371094,480.600006 
	C1171.201782,478.626434 1169.606323,474.507782 1167.786499,472.883057 
	C1166.213379,471.478516 1162.550903,471.531677 1160.140259,472.173553 
	C1157.198608,472.956879 1154.228027,474.602966 1151.920532,476.620148 
	C1144.118774,483.440216 1136.157593,490.171692 1129.102051,497.725983 
	C1121.466675,505.901276 1113.999268,514.446716 1107.853394,523.751953 
	C1097.593140,539.286804 1087.654419,555.141907 1079.026245,571.619263 
	C1068.538940,591.646973 1059.549927,612.459229 1049.493042,633.178650 
	C1049.483276,633.610352 1049.473511,634.042114 1049.463623,634.473755 
	C1049.854370,634.216309 1050.245117,633.958862 1051.178589,633.277893 
M1173.467407,588.978088 
	C1171.748047,592.641907 1170.028687,596.305786 1168.309326,599.969604 
	C1170.806519,599.653870 1172.328613,598.763977 1173.770386,597.758911 
	C1193.760010,583.825012 1211.947998,567.772095 1228.459839,549.917664 
	C1238.759399,538.780640 1248.592529,527.165344 1257.987305,515.253906 
	C1265.053589,506.294708 1271.084106,496.408661 1272.439453,484.738129 
	C1272.832764,481.352081 1271.738525,477.096222 1269.791748,474.311951 
	C1267.359985,470.834167 1263.120361,472.003540 1259.949707,474.100128 
	C1253.643677,478.269867 1247.068604,482.225525 1241.475464,487.240723 
	C1229.238647,498.213165 1218.980591,510.988922 1209.694092,524.562073 
	C1195.867065,544.771790 1184.295776,566.231689 1173.467407,588.978088 
z"/>
<path fill="#101112" opacity="1.000000" stroke="none" 
	d="
M1286.342773,661.297729 
	C1283.571411,664.357361 1281.043701,667.702698 1277.927979,670.358337 
	C1276.326172,671.723633 1272.851929,673.094360 1271.664917,672.302490 
	C1268.882324,670.446167 1269.873291,667.320801 1271.746094,664.880615 
	C1277.575562,657.285339 1283.551270,649.801025 1289.307251,642.151123 
	C1293.670532,636.352234 1298.145142,630.582764 1301.874146,624.381592 
	C1304.108154,620.666443 1304.747559,616.030762 1306.560913,612.015320 
	C1309.138550,606.307983 1311.850342,600.620850 1315.038452,595.241394 
	C1318.030396,590.192810 1325.446167,589.451172 1331.901855,592.993286 
	C1336.584717,595.562744 1337.743408,599.584656 1335.053223,605.674194 
	C1331.979004,612.633057 1328.392334,619.366394 1325.345825,626.336365 
	C1317.945923,643.265808 1310.180176,660.070618 1303.734863,677.362854 
	C1301.445801,683.504333 1301.967773,690.936890 1302.285645,697.729553 
	C1302.538452,703.128357 1310.178955,707.650269 1315.064941,705.251404 
	C1322.101807,701.796326 1329.099243,697.860229 1335.196045,692.982666 
	C1345.123047,685.040833 1354.764038,676.620239 1363.675659,667.565247 
	C1372.228638,658.874634 1379.883545,649.269043 1387.600220,639.794556 
	C1396.247437,629.177551 1406.379028,620.247314 1417.354126,612.191956 
	C1431.521973,601.793335 1446.083984,592.095825 1463.114502,586.860229 
	C1471.087036,584.409241 1479.264404,583.884583 1486.902710,587.189514 
	C1496.927124,591.526917 1499.826172,600.581421 1497.363159,613.918274 
	C1495.019043,626.612122 1485.840210,635.353577 1475.721436,642.466980 
	C1460.238159,653.351318 1443.470093,661.754578 1424.607910,665.175598 
	C1421.380371,665.760986 1418.007202,666.101318 1414.767090,665.814209 
	C1413.255005,665.680176 1411.899536,663.777527 1410.473145,662.676453 
	C1411.652222,661.626221 1412.703369,659.874695 1414.029785,659.632690 
	C1429.572754,656.796997 1442.634155,648.580505 1455.383179,640.086121 
	C1463.301514,634.810364 1470.715576,628.517822 1477.379639,621.723938 
	C1480.972046,618.061523 1483.524292,612.623230 1484.725220,607.554749 
	C1486.357422,600.665283 1482.241455,597.257202 1475.471191,599.500610 
	C1469.114990,601.606934 1462.677734,604.099854 1457.043335,607.642822 
	C1432.844482,622.859192 1412.979126,642.451904 1399.647705,667.990967 
	C1395.619263,675.708496 1392.549805,683.962708 1392.948486,693.078979 
	C1393.256836,700.133972 1397.850464,706.533508 1404.416626,708.992676 
	C1413.133911,712.257446 1421.809326,710.769165 1430.120361,708.295654 
	C1459.372314,699.589355 1484.077637,683.570557 1504.623657,660.955872 
	C1514.321533,650.281555 1519.890381,637.617554 1524.072144,624.127441 
	C1526.320435,616.874023 1528.534058,609.609436 1530.838379,602.373779 
	C1534.081299,592.191223 1545.532227,588.104187 1554.153320,594.316162 
	C1555.563965,595.332642 1556.747437,598.542786 1556.200562,600.091003 
	C1552.749634,609.861267 1548.720093,619.425354 1544.997681,629.102173 
	C1539.610352,643.107117 1534.321655,657.150024 1528.742676,671.677368 
	C1528.480835,672.608093 1528.467285,673.038269 1528.453735,673.468384 
	C1528.848022,673.220886 1529.242310,672.973450 1529.636719,672.726074 
	C1541.326660,660.074585 1553.214478,647.598938 1564.654541,634.725342 
	C1577.788940,619.944946 1591.880005,606.190491 1608.422729,595.377991 
	C1614.141113,591.640503 1621.323364,589.405396 1628.133667,588.279724 
	C1635.163208,587.117737 1639.965332,592.754944 1638.547852,599.703979 
	C1637.145386,606.579956 1635.181641,613.478455 1632.405762,619.910400 
	C1625.462646,635.998840 1617.773315,651.763611 1610.677612,667.788574 
	C1606.980713,676.137634 1606.498291,685.114014 1607.013062,694.144958 
	C1607.517944,702.999878 1615.303589,709.344116 1623.553101,704.019165 
	C1632.813843,698.041443 1641.971313,691.776978 1650.470581,684.782898 
	C1658.655151,678.047791 1666.350342,670.596741 1673.523682,662.783752 
	C1683.116699,652.335388 1691.633545,640.892517 1701.322632,630.541443 
	C1707.260254,624.197998 1714.311646,618.817627 1721.244507,613.502686 
	C1733.718140,603.940125 1746.676514,595.055786 1761.441895,589.278870 
	C1772.445312,584.973877 1783.583740,582.432190 1794.854248,588.480469 
	C1799.772827,591.119995 1801.989502,595.713379 1802.910400,600.877808 
	C1804.913940,612.113831 1801.611206,621.621887 1794.254395,630.455872 
	C1783.848877,642.950867 1770.295044,650.578491 1755.853271,656.770935 
	C1747.267944,660.452148 1738.076172,662.766724 1729.064453,665.376526 
	C1726.428467,666.139893 1723.474487,665.947754 1720.666992,665.939331 
	C1717.400024,665.929565 1715.788574,664.248657 1716.189453,661.442444 
	C1724.368896,658.368347 1732.430054,655.914978 1739.983276,652.376953 
	C1754.557617,645.549927 1767.999634,636.693909 1779.568359,625.537964 
	C1784.116577,621.152100 1787.582642,615.033630 1789.867798,609.063538 
	C1792.802002,601.397034 1788.117065,596.960144 1780.323486,599.475769 
	C1774.847900,601.243225 1769.361816,603.455750 1764.452026,606.417358 
	C1741.075806,620.517883 1722.011108,639.262573 1708.165405,662.724121 
	C1703.329712,670.918152 1700.531128,680.595398 1698.278076,689.950745 
	C1696.155762,698.763794 1703.913574,708.014587 1712.920044,710.022705 
	C1722.229736,712.098206 1731.004395,709.883057 1739.651001,707.108826 
	C1757.263184,701.458191 1773.171875,692.543335 1788.032471,681.542847 
	C1803.176514,670.332581 1814.853394,656.114868 1824.775635,640.359253 
	C1831.113037,630.296143 1836.727661,619.975647 1839.688354,608.120483 
	C1842.613403,596.407898 1850.504761,587.435669 1860.282349,580.403809 
	C1876.644653,568.636414 1894.132324,559.187805 1914.206665,555.431641 
	C1924.225464,553.557007 1934.304199,552.965210 1944.162598,556.189697 
	C1953.201538,559.146179 1960.058594,565.782532 1956.764038,578.243469 
	C1954.588745,586.470886 1949.809692,593.152893 1942.162354,597.289917 
	C1940.819580,598.016357 1938.789795,597.473022 1937.077271,597.516113 
	C1937.313965,595.601135 1937.079712,593.457458 1937.877319,591.815063 
	C1940.071045,587.298401 1943.266357,583.203918 1945.002319,578.546143 
	C1946.997192,573.193604 1943.752319,569.195435 1937.958618,569.042664 
	C1927.671265,568.771240 1918.140747,572.003723 1908.719604,575.679932 
	C1891.022827,582.585327 1875.226440,592.375854 1862.784180,606.890503 
	C1859.069336,611.223816 1855.845215,616.223572 1853.491943,621.414734 
	C1850.667603,627.645447 1854.246582,634.455444 1862.005005,638.936890 
	C1871.014771,644.141052 1880.343628,648.805298 1889.235596,654.196167 
	C1894.120972,657.158020 1899.082275,660.528442 1902.799194,664.774109 
	C1910.839111,673.957520 1909.386963,681.808838 1903.175293,692.108704 
	C1893.571167,708.033508 1878.706909,717.795471 1861.943115,724.876648 
	C1849.566772,730.104492 1836.657837,733.509338 1823.280029,734.889771 
	C1817.735840,735.461853 1812.370972,734.989502 1808.053345,730.602173 
	C1804.562378,727.054810 1803.685059,722.745605 1805.907104,718.779541 
	C1808.246338,714.604309 1811.399536,710.524048 1815.127808,707.581238 
	C1819.584106,704.063599 1824.964233,701.671021 1830.092407,699.084717 
	C1831.233398,698.509216 1832.992188,699.158447 1834.466553,699.243774 
	C1833.821899,700.743469 1833.552979,702.642090 1832.462891,703.669006 
	C1829.048462,706.886047 1824.914062,709.420410 1821.884277,712.931763 
	C1820.239380,714.837952 1819.243896,718.426208 1819.797729,720.831604 
	C1820.534790,724.032410 1823.809692,725.175537 1827.349487,725.038818 
	C1836.291748,724.693604 1843.995972,720.934998 1851.249512,716.271912 
	C1864.019287,708.062683 1875.704346,698.601868 1882.610474,684.607605 
	C1884.262573,681.259583 1885.218750,677.461365 1885.896851,673.760620 
	C1887.508545,664.965027 1880.872559,660.790588 1875.329956,656.215027 
	C1872.934937,654.237854 1870.171875,652.611633 1867.375488,651.232605 
	C1857.240967,646.234985 1847.316650,641.005615 1840.687500,631.068359 
	C1833.757812,641.310059 1827.370117,651.321472 1820.402710,660.911621 
	C1810.437866,674.627502 1798.239502,686.135132 1784.608276,696.258240 
	C1769.914185,707.171082 1754.051147,715.417236 1735.924561,718.455444 
	C1719.806885,721.156982 1703.800415,720.801758 1689.645264,711.216980 
	C1676.706787,702.455872 1673.416870,693.084839 1675.562866,676.831970 
	C1675.639893,676.247925 1675.645386,675.654541 1676.506714,676.150146 
	C1672.335938,679.601746 1668.195068,683.090271 1663.988281,686.497375 
	C1653.624023,694.891479 1643.891724,704.306824 1632.665283,711.329529 
	C1620.786133,718.760620 1607.141968,719.757507 1593.735596,714.229858 
	C1587.212891,711.540405 1582.466675,701.728882 1583.029907,692.818115 
	C1583.892456,679.173645 1587.104126,666.059814 1592.755981,653.635986 
	C1597.552979,643.091064 1602.799561,632.750610 1607.846191,622.319275 
	C1608.351440,621.275024 1609.094360,620.271484 1609.292480,619.170837 
	C1609.571899,617.618225 1609.445923,615.992676 1609.493164,614.398315 
	C1607.783447,614.390991 1605.653076,613.717468 1604.433960,614.487183 
	C1597.763062,618.698059 1590.784302,622.656982 1584.893433,627.822449 
	C1568.559570,642.144897 1556.093018,659.878479 1543.019287,677.050232 
	C1535.728394,686.626587 1528.336182,696.127869 1520.870605,705.568726 
	C1515.027832,712.957397 1506.615723,716.138000 1498.009033,718.779053 
	C1496.230835,719.324646 1494.142090,718.858154 1490.668945,718.858154 
	C1495.977783,703.557861 1500.964966,689.184387 1506.237305,674.311829 
	C1506.654053,673.276001 1506.785767,672.739197 1507.109497,671.419434 
	C1506.150635,672.461426 1505.761475,672.884216 1505.372314,673.307129 
	C1492.509155,686.244324 1478.764771,698.065613 1462.663208,706.877625 
	C1451.009399,713.255493 1438.849731,717.849548 1425.416870,719.121094 
	C1413.727417,720.227600 1402.424194,719.596191 1391.456421,715.240662 
	C1377.686768,709.772522 1366.624023,698.015747 1369.931885,678.137268 
	C1370.035278,677.516541 1369.807007,676.840576 1369.620117,675.188538 
	C1367.739258,676.945679 1366.329834,678.193970 1364.996460,679.518982 
	C1354.430420,690.018921 1344.495728,701.322021 1331.479858,708.924561 
	C1320.839966,715.139343 1309.742920,719.652893 1296.702881,717.218079 
	C1285.122681,715.055786 1279.390625,704.345337 1279.687134,693.449646 
	C1279.981323,682.640015 1283.825562,672.853027 1287.282471,662.288940 
	C1287.868286,660.855652 1288.174438,659.960449 1288.480469,659.065247 
	C1288.265869,658.999878 1288.051392,658.934509 1287.836792,658.869141 
	C1287.338867,659.678711 1286.840820,660.488220 1286.342773,661.297729 
z"/>
<path fill="#2257BF" opacity="1.000000" stroke="none" 
	d="
M499.192566,980.696777 
	C497.624908,976.631409 495.356934,972.871094 495.171967,969.010986 
	C494.290985,950.627441 499.252289,933.084351 504.309357,915.701172 
	C517.806274,869.306885 536.455078,824.853149 556.099243,780.808105 
	C565.972168,758.671570 576.221191,736.702881 586.327087,714.670593 
	C586.585449,714.107361 587.157593,713.688049 588.053589,712.664490 
	C592.030945,717.312744 595.805603,721.816589 599.680237,726.232666 
	C607.129456,734.722839 614.536133,743.254639 622.181335,751.565918 
	C624.338989,753.911560 624.585022,755.707275 623.246948,758.569580 
	C610.574829,785.678101 597.301758,812.542664 585.759094,840.129028 
	C578.301086,857.953186 572.902161,876.714722 567.720642,895.372803 
	C565.998901,901.572510 566.766724,909.005676 568.275635,915.433777 
	C570.556885,925.152588 581.647827,930.106995 591.337280,927.347656 
	C600.190918,924.826416 608.045532,920.231262 614.270691,913.906555 
	C626.456787,901.525391 637.591431,888.117065 649.476501,875.429260 
	C658.671997,865.612793 668.226318,856.120483 677.899048,846.771606 
	C680.201294,844.546570 683.509766,843.229370 686.539795,841.921997 
	C690.990051,840.001953 694.307068,841.828186 693.704224,846.627625 
	C693.065491,851.713867 691.592346,857.233154 688.763123,861.393127 
	C683.091980,869.731689 675.729736,876.915710 670.007874,885.225098 
	C660.789551,898.611938 652.742126,912.807800 643.465149,926.150818 
	C627.586487,948.989014 610.028625,970.285339 587.097168,986.749695 
	C575.292236,995.225403 562.484863,997.421936 548.780640,995.739624 
	C538.096008,994.427979 527.378906,992.589600 517.015625,989.747925 
	C510.823059,988.049927 505.284546,983.966797 499.192566,980.696777 
z"/>
<path fill="#101112" opacity="1.000000" stroke="none" 
	d="
M682.964844,590.008423 
	C699.745850,582.147705 714.698547,572.160156 727.654785,559.474060 
	C735.755432,551.542175 742.455200,542.357361 742.921326,530.394043 
	C743.515686,515.137756 735.951660,504.243744 723.251343,496.667419 
	C711.570557,489.699310 698.598938,486.501007 685.244751,485.038544 
	C673.086792,483.707031 660.859619,482.205200 648.665283,482.224548 
	C635.301086,482.245758 621.839783,483.209747 608.602295,485.060730 
	C592.306946,487.339294 576.079224,490.437378 560.039368,494.125427 
	C537.924622,499.210236 517.410034,508.332611 499.874084,522.929443 
	C490.458252,530.767151 482.303619,539.847229 478.781708,552.365173 
	C474.678467,566.949463 477.913727,575.642151 491.270020,582.659119 
	C495.520142,584.892029 499.869965,586.972473 503.923370,589.521484 
	C505.280792,590.375122 505.859100,592.467712 506.793518,593.993958 
	C505.085693,594.656006 503.288300,596.053345 501.684875,595.858093 
	C492.735077,594.768372 485.084717,590.761963 478.299866,584.844543 
	C468.863800,576.614868 464.879547,566.779236 464.608612,553.880127 
	C464.275543,538.022400 470.629608,526.249084 480.958862,515.505859 
	C491.983032,504.039764 505.251495,495.775330 518.935486,487.958984 
	C538.297241,476.899475 559.470764,471.218811 581.077759,467.296814 
	C593.064209,465.121094 605.413513,464.724396 617.628540,464.098328 
	C627.181519,463.608673 636.801392,463.583527 646.353455,464.081879 
	C670.527344,465.343079 694.618591,468.183807 716.744934,478.553375 
	C735.958130,487.557739 750.317505,501.982635 753.614319,523.959290 
	C755.827148,538.710327 751.606567,552.516541 742.129761,564.356750 
	C723.387817,587.772583 697.842651,600.511047 670.202820,609.829590 
	C649.674927,616.750427 628.683960,621.747009 607.102478,624.041138 
	C595.309631,625.294739 583.510376,626.487183 570.992737,627.781738 
	C575.668274,633.722046 580.109558,639.511108 584.705688,645.174377 
	C594.993774,657.851074 604.831055,670.947937 615.831848,682.977600 
	C628.424744,696.748413 641.804077,709.839966 655.382812,722.653259 
	C662.671997,729.531555 670.653381,735.901001 679.095459,741.288757 
	C700.171143,754.739441 722.910034,764.825806 747.907776,767.670837 
	C762.149841,769.291748 776.683838,768.476990 789.322266,759.423035 
	C798.520325,752.833740 803.981445,740.335449 801.671387,729.444519 
	C801.102600,726.762695 799.483337,723.414368 803.296570,722.284485 
	C807.317200,721.093079 809.376465,723.985291 810.234619,727.594910 
	C814.396423,745.101868 811.910889,761.497437 799.386047,774.754944 
	C791.273132,783.342468 779.893677,787.166443 768.282593,788.915710 
	C743.041138,792.718384 719.473389,786.621521 696.582031,776.323853 
	C672.890625,765.666260 653.056458,749.905640 635.554260,731.056519 
	C615.520386,709.480957 597.394897,686.385254 581.292297,661.697510 
	C574.809631,651.758545 567.741516,642.202332 560.986694,632.439514 
	C558.649475,629.061462 556.803101,629.202393 555.022278,632.906311 
	C546.067627,651.531189 536.994263,670.099670 528.169617,688.785706 
	C526.646606,692.010681 525.630005,695.665833 525.335999,699.201904 
	C525.182800,701.044556 526.661865,703.933044 528.234436,704.750000 
	C529.768066,705.546753 532.993042,705.030396 534.370911,703.826416 
	C538.810242,699.947205 542.762329,695.506165 546.857056,691.238403 
	C548.915833,689.092712 550.664795,686.586853 552.962830,684.757690 
	C554.312622,683.683350 556.465576,683.618164 558.257263,683.099060 
	C558.567017,683.592896 558.876831,684.086731 559.186584,684.580627 
	C557.794556,687.098389 556.597046,689.750000 554.974182,692.109009 
	C549.936401,699.432190 544.850342,706.728027 539.572571,713.879089 
	C532.433350,723.552246 518.825012,726.974976 509.174011,721.438721 
	C507.681671,720.582703 505.948883,718.058472 506.189941,716.617249 
	C507.459839,709.025208 508.291718,701.106750 511.182220,694.086609 
	C519.734070,673.316895 529.183716,652.916992 538.268066,632.366150 
	C538.660339,631.478760 538.911377,630.529053 539.234070,629.591431 
	C527.944031,626.893005 524.523926,623.007996 526.760254,615.583679 
	C529.555908,606.302551 535.865601,604.697144 551.193909,609.947083 
	C558.570129,594.044556 566.176636,578.116821 573.269836,561.963745 
	C574.721985,558.656738 573.476929,554.191895 574.843811,550.814758 
	C576.981140,545.533997 579.701416,540.265503 583.211060,535.807617 
	C592.137756,524.469177 601.863403,513.924683 615.175903,507.323975 
	C626.889526,501.516052 637.336304,504.509277 647.407288,511.085815 
	C648.982971,512.114746 650.331543,513.899414 651.107849,515.637207 
	C652.003601,517.642395 652.148193,519.983154 652.619019,522.178223 
	C650.737976,522.132812 648.737976,521.652283 646.999329,522.127686 
	C642.612549,523.327026 637.992737,524.334534 634.093140,526.531555 
	C622.641785,532.983459 613.704468,542.497559 606.206543,553.015198 
	C593.675049,570.593750 581.908203,588.719116 569.912292,606.676208 
	C567.923462,609.653320 566.405945,612.945251 563.998352,617.310669 
	C570.578491,617.544373 576.321899,618.429810 581.906250,617.831177 
	C609.255981,614.899475 635.813660,608.381104 661.623962,598.913391 
	C668.735535,596.304749 675.619202,593.075073 682.964844,590.008423 
z"/>
<path fill="#2257BF" opacity="1.000000" stroke="none" 
	d="
M140.290802,575.303894 
	C121.478485,586.330750 102.862411,596.972839 84.538048,608.095581 
	C75.803909,613.397095 67.124977,616.783691 56.493912,616.215759 
	C40.878254,615.381470 25.184940,616.000854 9.524711,616.000916 
	C7.726753,616.000977 5.928796,616.000916 4.130839,616.000916 
	C3.960794,615.550415 3.790750,615.099915 3.620706,614.649414 
	C53.272957,585.439453 102.925209,556.229492 153.648743,526.389282 
	C147.003952,522.584351 141.374969,519.361084 134.437805,515.388672 
	C139.397263,512.884277 143.123596,510.912689 146.925400,509.099304 
	C158.930832,503.372955 171.014252,497.807343 182.958008,491.956055 
	C186.706528,490.119629 189.915390,489.870667 193.779434,491.822449 
	C207.438705,498.722046 221.261230,505.298248 235.011353,512.018616 
	C236.759094,512.872803 238.444748,513.854065 241.456970,515.474731 
	C235.307373,519.239441 230.113968,522.418762 223.706848,526.341064 
	C273.889801,556.111084 323.068787,585.285522 372.247803,614.460022 
	C372.189087,614.876831 372.130371,615.293640 372.071655,615.710449 
	C370.570007,615.807068 369.068481,615.986328 367.566742,615.987732 
	C348.574554,616.005371 329.581299,616.096680 310.591278,615.893921 
	C307.574799,615.861694 304.191589,615.126099 301.622009,613.618164 
	C269.947906,595.030945 238.396759,576.234253 206.804840,557.506958 
	C202.086655,554.710144 197.217270,552.153442 192.618240,549.176025 
	C189.873581,547.399170 187.589249,547.452942 184.862686,549.071228 
	C170.143158,557.807617 155.364838,566.445007 140.290802,575.303894 
z"/>
<path fill="#2257BF" opacity="1.000000" stroke="none" 
	d="
M257.000000,724.999390 
	C271.998016,725.002197 286.497803,725.134033 300.992950,724.931885 
	C305.553833,724.868286 307.219208,726.458801 307.061432,731.015564 
	C306.796356,738.672180 306.885315,746.345886 307.017395,754.009094 
	C307.080261,757.658997 305.579987,759.070557 301.967316,759.018860 
	C293.470367,758.897156 284.970306,758.998779 276.471527,758.998962 
	C210.147308,759.000549 143.823074,759.001404 77.498848,758.996948 
	C69.016380,758.996399 69.010406,758.981750 69.001205,750.485535 
	C68.994171,743.986450 69.211891,737.478516 68.937119,730.991211 
	C68.742783,726.403015 70.497398,724.903931 75.025467,724.934082 
	C98.354538,725.089661 121.685226,725.000610 145.015350,724.999756 
	C182.176895,724.998413 219.338455,724.999390 257.000000,724.999390 
z"/>
<path fill="#2257BF" opacity="1.000000" stroke="none" 
	d="
M671.043457,569.011963 
	C651.647644,577.934814 631.732666,583.963745 611.341187,588.486084 
	C611.021851,588.134460 610.702454,587.782898 610.383118,587.431274 
	C613.583740,582.963013 616.580322,578.329529 620.033447,574.065796 
	C625.039429,567.884583 630.400940,561.992310 635.559021,555.932739 
	C637.910034,553.170776 640.630310,552.365173 643.988281,553.878845 
	C650.596558,556.857666 657.213989,559.816284 664.132141,562.919861 
	C664.702209,562.006042 665.456665,560.951843 666.054199,559.815247 
	C673.620850,545.422119 681.317383,531.093811 688.623779,516.569397 
	C690.882812,512.078796 693.474121,510.097076 698.368103,512.050781 
	C702.215881,513.586792 706.277222,514.685791 709.939209,516.570557 
	C720.300049,521.903320 721.866577,531.284973 713.742310,539.731445 
	C704.707397,549.124817 694.395630,556.929565 682.854492,563.044189 
	C679.068176,565.050171 675.216980,566.933716 671.043457,569.011963 
z"/>
<path fill="#2257BF" opacity="1.000000" stroke="none" 
	d="
M1018.617493,587.867432 
	C1010.471191,589.691711 1002.726868,591.531189 994.925415,593.084106 
	C993.718323,593.324402 991.394958,592.608154 991.029053,591.732239 
	C984.386963,575.830688 971.767700,567.073242 954.762878,561.958008 
	C986.187378,552.872437 1016.429382,544.128662 1047.561035,535.127747 
	C1046.958862,537.189026 1046.769897,538.619019 1046.152344,539.830444 
	C1038.774048,554.303101 1031.404907,568.781616 1023.818237,583.145081 
	C1022.828674,585.018494 1020.636047,586.256409 1018.617493,587.867432 
z"/>
<path fill="#2257BF" opacity="1.000000" stroke="none" 
	d="
M137.230835,600.569580 
	C138.855637,599.430664 140.384415,598.143494 141.933487,598.118591 
	C152.926666,597.941650 163.924698,598.091125 174.919662,597.983459 
	C178.505234,597.948364 180.046432,599.320374 180.008499,602.980896 
	C179.898041,613.642578 179.896469,624.306885 180.012131,634.968506 
	C180.051270,638.577393 178.656174,640.057617 175.005661,640.018738 
	C164.010864,639.901672 153.013290,639.903992 142.018433,640.017639 
	C138.392776,640.055054 136.939178,638.619751 136.986359,634.988708 
	C137.133514,623.662231 137.104767,612.333496 137.230835,600.569580 
z"/>
<path fill="#2257BF" opacity="1.000000" stroke="none" 
	d="
M166.980194,653.998901 
	C181.686127,654.176758 179.854340,652.288513 179.978973,666.506531 
	C180.050491,674.665222 179.888519,682.826477 180.011429,690.983887 
	C180.065979,694.604797 178.621704,696.056641 174.989059,696.018799 
	C164.000122,695.904236 153.008469,695.905090 142.019516,696.018555 
	C138.399490,696.055908 136.945099,694.629517 136.984680,690.996887 
	C137.100800,680.341003 137.098541,669.682312 136.985565,659.026428 
	C136.947266,655.412354 138.371094,653.927124 142.006561,653.981445 
	C150.164001,654.103271 158.324692,654.006592 166.980194,653.998901 
z"/>
<path fill="#2257BF" opacity="1.000000" stroke="none" 
	d="
M237.998993,623.995117 
	C237.980072,628.324890 238.323349,632.210205 237.762466,635.960205 
	C237.540771,637.442505 235.336685,639.731201 233.984161,639.767883 
	C222.665451,640.074646 211.331223,640.074646 200.012482,639.768250 
	C198.660095,639.731628 196.265533,637.337219 196.228912,635.984924 
	C195.922333,624.666199 195.922302,613.331909 196.228516,602.013184 
	C196.265106,600.661194 198.658707,598.267273 200.010513,598.230652 
	C211.329315,597.924500 222.659973,598.075195 233.986954,598.044739 
	C237.071823,598.036438 237.988174,599.751160 237.975983,602.507629 
	C237.945084,609.503723 237.986511,616.500183 237.998993,623.995117 
z"/>
<path fill="#2257BF" opacity="1.000000" stroke="none" 
	d="
M230.834900,654.001953 
	C237.930649,654.215149 237.966507,654.215027 237.986649,660.830505 
	C238.016571,670.662537 237.882690,680.496460 238.039825,690.325989 
	C238.102646,694.256226 236.916672,696.122986 232.649841,696.045166 
	C222.154678,695.853516 211.652176,695.877197 201.155869,696.032837 
	C197.189087,696.091553 195.917908,694.406799 195.967331,690.640991 
	C196.105133,680.144104 196.121521,669.642761 195.964630,659.146484 
	C195.905212,655.171143 197.603165,653.914185 201.362473,653.967773 
	C211.025879,654.105774 220.692673,654.005615 230.834900,654.001953 
z"/>
<path fill="#2257BF" opacity="1.000000" stroke="none" 
	d="
M644.631775,679.392822 
	C636.642029,670.269836 628.837830,661.453064 621.075134,652.599854 
	C618.252625,649.380859 618.928772,647.049622 622.794067,646.116516 
	C640.325806,641.884277 657.850769,637.623657 675.384277,633.398987 
	C675.988953,633.253296 676.659363,633.380493 678.236206,633.380493 
	C676.733276,636.535522 675.684814,639.379578 674.122803,641.906128 
	C666.711243,653.894592 663.783325,667.205994 661.822266,680.930969 
	C661.300903,684.580322 659.041626,687.981323 657.060303,692.747009 
	C652.248230,687.605957 648.540955,683.645264 644.631775,679.392822 
z"/>
<path fill="#101112" opacity="1.000000" stroke="none" 
	d="
M1344.973511,539.954590 
	C1347.655273,538.025208 1349.815796,535.867981 1352.395386,534.502502 
	C1354.136230,533.580994 1357.582642,533.159241 1356.772339,536.661804 
	C1354.568970,546.185364 1353.163940,556.071777 1346.539917,564.026062 
	C1341.406616,570.190369 1337.011353,571.641052 1329.279663,569.182373 
	C1328.648804,568.981750 1327.852905,569.019165 1327.384033,568.638000 
	C1325.223755,566.881897 1322.307007,565.404968 1321.247192,563.099182 
	C1319.659668,559.645935 1322.850342,557.331238 1325.266724,555.369141 
	C1331.653320,550.183533 1338.167358,545.154846 1344.973511,539.954590 
z"/>
<path fill="#2257BF" opacity="1.000000" stroke="none" 
	d="
M838.998779,601.535522 
	C837.723389,596.056946 836.485168,590.948853 835.125061,585.338379 
	C849.298828,582.934753 863.236816,580.571167 877.174866,578.207581 
	C877.326599,578.524536 877.478333,578.841553 877.630066,579.158569 
	C874.832947,580.938782 871.983582,582.642517 869.248474,584.513428 
	C860.510681,590.490417 851.819702,596.535889 843.099487,602.538757 
	C841.582031,603.583313 839.791565,605.941956 838.998779,601.535522 
z"/>
<path fill="#2256BE" opacity="1.000000" stroke="none" 
	d="
M773.208984,736.503906 
	C774.698364,735.995972 775.957275,735.673828 777.216125,735.351746 
	C777.457886,735.749451 777.699646,736.147156 777.941345,736.544800 
	C776.845520,737.928406 775.749634,739.312012 774.653809,740.695618 
	C774.201355,740.622559 773.748901,740.549438 773.296448,740.476379 
	C773.190430,739.214172 773.084473,737.951965 773.208984,736.503906 
z"/>
<path fill="#4C6971" opacity="1.000000" stroke="none" 
	d="
M1049.912720,632.932129 
	C1059.549927,612.459229 1068.538940,591.646973 1079.026245,571.619263 
	C1087.654419,555.141907 1097.593140,539.286804 1107.853394,523.751953 
	C1113.999268,514.446716 1121.466675,505.901276 1129.102051,497.725983 
	C1136.157593,490.171692 1144.118774,483.440216 1151.920532,476.620148 
	C1154.228027,474.602966 1157.198608,472.956879 1160.140259,472.173553 
	C1162.550903,471.531677 1166.213379,471.478516 1167.786499,472.883057 
	C1169.606323,474.507782 1171.201782,478.626434 1170.371094,480.600006 
	C1166.165039,490.592041 1162.021484,500.803192 1156.212646,509.886566 
	C1144.944580,527.506592 1133.042114,544.771240 1120.513550,561.518188 
	C1111.336304,573.785522 1100.859009,585.095764 1090.730591,596.630066 
	C1084.821533,603.359375 1078.777588,610.035278 1072.210571,616.103271 
	C1065.575195,622.234253 1058.218994,627.585205 1050.726562,633.297241 
	C1050.153931,633.188416 1050.033325,633.060242 1049.912720,632.932129 
z"/>
<path fill="#4C6971" opacity="1.000000" stroke="none" 
	d="
M1173.656128,588.654114 
	C1184.295776,566.231689 1195.867065,544.771790 1209.694092,524.562073 
	C1218.980591,510.988922 1229.238647,498.213165 1241.475464,487.240723 
	C1247.068604,482.225525 1253.643677,478.269867 1259.949707,474.100128 
	C1263.120361,472.003540 1267.359985,470.834167 1269.791748,474.311951 
	C1271.738525,477.096222 1272.832764,481.352081 1272.439453,484.738129 
	C1271.084106,496.408661 1265.053589,506.294708 1257.987305,515.253906 
	C1248.592529,527.165344 1238.759399,538.780640 1228.459839,549.917664 
	C1211.947998,567.772095 1193.760010,583.825012 1173.770386,597.758911 
	C1172.328613,598.763977 1170.806519,599.653870 1168.309326,599.969604 
	C1170.028687,596.305786 1171.748047,592.641907 1173.656128,588.654114 
z"/>
<path fill="#4C6971" opacity="1.000000" stroke="none" 
	d="
M1050.455322,633.508911 
	C1050.245117,633.958862 1049.854370,634.216309 1049.463623,634.473755 
	C1049.473511,634.042114 1049.483276,633.610352 1049.702881,633.055420 
	C1050.033325,633.060242 1050.153931,633.188416 1050.455322,633.508911 
z"/>
<path fill="#4C6971" opacity="1.000000" stroke="none" 
	d="
M926.514160,655.474976 
	C926.735291,655.041565 927.128418,654.790894 927.521606,654.540283 
	C927.499390,654.960205 927.477234,655.380127 927.243042,655.911377 
	C926.916016,655.900940 926.801025,655.779358 926.514160,655.474976 
z"/>
<path fill="#4C6971" opacity="1.000000" stroke="none" 
	d="
M1286.526489,661.488281 
	C1286.840820,660.488220 1287.338867,659.678711 1287.836792,658.869141 
	C1288.051392,658.934509 1288.265869,658.999878 1288.480469,659.065247 
	C1288.174438,659.960449 1287.868286,660.855652 1287.320068,661.905151 
	C1286.955322,661.932434 1286.832764,661.805603 1286.526489,661.488281 
z"/>
<path fill="#4C6971" opacity="1.000000" stroke="none" 
	d="
M1505.551270,673.497253 
	C1505.761475,672.884216 1506.150635,672.461426 1507.109497,671.419434 
	C1506.785767,672.739197 1506.654053,673.276001 1506.305176,673.940186 
	C1505.968750,673.940796 1505.849365,673.814087 1505.551270,673.497253 
z"/>
<path fill="#4C6971" opacity="1.000000" stroke="none" 
	d="
M1529.456299,672.527771 
	C1529.242310,672.973450 1528.848022,673.220886 1528.453735,673.468384 
	C1528.467285,673.038269 1528.480835,672.608093 1528.704346,672.055786 
	C1529.034668,672.065552 1529.155273,672.197510 1529.456299,672.527771 
z"/>
</svg>